<?xml version="1.0" encoding="UTF-8" standalone="no"?>

<svg xmlns:dc="http://purl.org/dc/elements/1.1/" xmlns:cc="http://creativecommons.org/ns#" xmlns:rdf="http://www.w3.org/1999/02/22-rdf-syntax-ns#" xmlns:svg="http://www.w3.org/2000/svg" xmlns="http://www.w3.org/2000/svg" xmlns:sodipodi="http://sodipodi.sourceforge.net/DTD/sodipodi-0.dtd" xmlns:inkscape="http://www.inkscape.org/namespaces/inkscape" sodipodi:docname="Photo_lenses_with_a_focal_length_and_angle.svg" inkscape:version="1.0 (4035a4fb49, 2020-05-01)" id="svg5" version="1.1" viewBox="0 0 295.65598 175.93733" height="175.93733mm" width="295.65598mm">
<metadata id="metadata93"> <rdf:RDF> <cc:Work rdf:about=""> <dc:format>image/svg+xml</dc:format> <dc:type rdf:resource="http://purl.org/dc/dcmitype/StillImage" /> <dc:title></dc:title> </cc:Work> </rdf:RDF> </metadata> <sodipodi:namedview inkscape:document-rotation="0" inkscape:snap-global="true" inkscape:current-layer="layer3" inkscape:window-maximized="1" inkscape:window-y="-12" inkscape:window-x="118" inkscape:window-height="2120" inkscape:window-width="3710" inkscape:cy="315.82159" inkscape:cx="375.33335" inkscape:zoom="1.4142136" fit-margin-bottom="0" fit-margin-right="0" fit-margin-left="0" fit-margin-top="0" showgrid="false" inkscape:document-units="mm" inkscape:pagecheckerboard="0" inkscape:pageopacity="0.0" inkscape:pageshadow="2" borderopacity="1.0" bordercolor="#666666" pagecolor="#ffffff" id="namedview7" />
<defs id="defs2" />
<g style="display:inline;opacity:1" inkscape:label="layer" id="layer2" inkscape:groupmode="layer"> <rect style="opacity:1;fill:#ffffff;fill-opacity:1;stroke:none;stroke-width:0.744075;stroke-miterlimit:4;stroke-dasharray:2.9763, 2.97630000000000017;stroke-dashoffset:0;stroke-opacity:1" id="rect918" width="307.48282" height="186.86824" x="-6.0060153" y="-2.9934244" />
<path d="m 14.485903,48.502809 c -0.336878,2.4e-4 -0.654069,0.0644 -0.941028,0.18035 h -0.0057 l -0.0052,0.004 c -0.873961,0.35791 -1.463477,1.20368 -1.463477,2.23087 l -5.16e-4,-5.2e-4 v 9.01082 c -0.965536,0.32184 -1.609203,1.20722 -1.609203,2.25309 v 6.436302 c 0,1.045819 0.643667,1.930652 1.609203,2.252576 v 16.250171 c 0,1.367676 1.046131,2.413804 2.413807,2.413804 l 14.481286,5.19e-4 c 1.528265,0 2.977055,-0.644002 4.023011,-1.68982 1.045819,-1.126122 1.609204,-2.574346 1.609204,-4.102592 -0.08096,-3.057173 -2.574523,-5.471501 -5.631699,-5.471501 h -0.8046 c -0.03473,0 -0.06864,-0.003 -0.102836,-0.0052 -0.280842,-0.05313 -0.520099,-0.123653 -0.713137,-0.220657 -0.330771,-0.196374 -0.585737,-0.506643 -0.709517,-0.876951 -0.0087,-0.02802 -0.01738,-0.05642 -0.02532,-0.08578 -0.03666,-0.134353 -0.05839,-0.275066 -0.05839,-0.420645 v -2.413289 h 3.190502 l 0.02739,0.244946 v 0.559139 c 0,0.482428 0.321641,0.804085 0.804087,0.804085 l 8.045503,10e-4 v 0.804085 c 0,0.430765 0.25736,0.731782 0.655775,0.791683 l 0.0036,0.0036 h 0.03979 c 0.03463,0.0036 0.06836,0.0088 0.104902,0.0088 l 13.677719,0.001 v 0.804085 c 0,0.482428 0.321636,0.804603 0.804085,0.804603 h 3.217892 c 0.48242,0 0.804084,-0.32216 0.804084,-0.804603 l 10e-4,-25.74365 c 0,-0.48243 -0.322162,-0.80408 -0.804603,-0.80408 h -3.217376 c -0.482428,0 -0.804601,0.32163 -0.804601,0.80408 v 0.80409 H 39.424948 c -0.482428,0 -0.804085,0.32216 -0.804085,0.8046 v 0.59893 l -0.02325,0.20515 h -8.022248 c -0.482428,0 -0.804604,0.32216 -0.804604,0.80461 v 0.66921 l -0.01137,0.0765 -1.614371,0.0356 -1.044898,0.0227 h -0.546735 v -5.6317 c 0,-1.36768 -1.04613,-2.4138 -2.413807,-2.4138 z" style="fill:#deddda;stroke-width:0.352777" id="path70404" /> <rect y="-2.9934244" x="271.27856" height="186.86824" width="30.198236" id="rect33925" style="opacity:0.5;fill:#00a8e0;fill-opacity:1;stroke:none;stroke-width:0.264584;stroke-miterlimit:4;stroke-dasharray:1.05833, 1.05833;stroke-dashoffset:0;stroke-opacity:1" /> <rect y="-2.9934244" x="195.35822" height="186.86824" width="75.920334" id="rect34162" style="opacity:0.5;fill:#bb2b78;fill-opacity:1;stroke:none;stroke-width:0.264583;stroke-miterlimit:4;stroke-dasharray:1.05833, 1.05833;stroke-dashoffset:0;stroke-opacity:1" /> <rect y="-2.9934244" x="130.28976" height="186.86824" width="65.068428" id="rect34164" style="opacity:0.5;fill:#47af3f;fill-opacity:1;stroke:none;stroke-width:0.264583;stroke-miterlimit:4;stroke-dasharray:1.05833, 1.05833;stroke-dashoffset:0;stroke-opacity:1" /> <rect y="-2.9934244" x="96.634308" height="186.86824" width="33.65546" id="rect34246" style="opacity:0.5;fill:#6f448a;fill-opacity:1;stroke:none;stroke-width:0.264583;stroke-miterlimit:4;stroke-dasharray:1.05833, 1.05833;stroke-dashoffset:0;stroke-opacity:1" /> <rect y="-2.9934244" x="57.755547" height="186.86824" width="38.878769" id="rect34248" style="opacity:0.5;fill:#db2b2a;fill-opacity:1;stroke:none;stroke-width:0.264583;stroke-miterlimit:4;stroke-dasharray:1.05833, 1.05833;stroke-dashoffset:0;stroke-opacity:1" />
<g style="opacity:1;stroke-width:2.07662" transform="matrix(0,0.16988077,-0.16988077,0,98.473283,5.545314)" id="g875">
<path style="stroke-width:2.07662" id="path863" d="m 267.08,508.61 h 53.043 c 1.8945,5.6836 7.1055,9.4727 13.262,9.4727 h 37.887 c 6.1562,0 11.367,-3.7891 13.262,-9.4727 h 95.656 c 8.0508,0 14.207,-6.1562 14.207,-14.207 l 0.004,-85.246 c 0,-8.9961 -3.7891,-17.523 -9.9453,-23.68 -6.6289,-6.1562 -15.156,-9.4727 -24.152,-9.4727 -17.996,0.47656 -32.207,15.156 -32.207,33.152 v 4.7344 c 0,5.2109 -4.2617,9.4727 -9.4727,9.4727 h -14.207 v -18.941 h 4.7344 c 2.8398,0 4.7344,-1.8945 4.7344,-4.7344 l 0.004,-47.359 h 4.7344 c 2.8398,0 4.7344,-1.8945 4.7344,-4.7344 l 0.004,-80.512 h 4.7344 c 2.8398,0 4.7344,-1.8945 4.7344,-4.7344 v -18.941 c 0,-2.8398 -1.8945,-4.7344 -4.7344,-4.7344 l -151.54,-0.004 c -2.8398,0 -4.7344,1.8945 -4.7344,4.7344 v 18.941 c 0,2.8398 1.8945,4.7344 4.7344,4.7344 h 4.7344 v 80.508 c 0,2.8398 1.8945,4.7344 4.7344,4.7344 h 4.7344 v 47.359 c 0,2.8398 1.8945,4.7344 4.7344,4.7344 h 4.7344 v 18.941 h -33.152 c -8.0508,0 -14.207,6.1562 -14.207,14.207 v 56.828 c 0.008,8.0625 6.1641,14.219 14.215,14.219 z M 376,503.8717 c 0,2.8398 -1.8945,4.7344 -4.7344,4.7344 h -37.887 c -2.8398,0 -4.7344,-1.8945 -4.7344,-4.7344 v -75.773 c 0,-2.8398 1.8945,-4.7344 4.7344,-4.7344 h 37.887 c 2.8398,0 4.7344,1.8945 4.7344,4.7344 z m -4.7344,-89.98 h -37.887 c -6.1562,0 -11.367,3.7891 -13.262,9.4727 h -10.418 v -18.941 h 85.246 v 18.941 h -10.418 c -1.8945,-5.6836 -7.1055,-9.4727 -13.262,-9.4727 z m 47.359,18.945 c 10.418,0 18.941,-8.5234 18.941,-18.941 v -4.7344 c 0,-13.262 9.9453,-23.207 22.73,-23.68 6.6289,-0.47266 12.785,2.3672 17.051,6.6289 4.7344,4.7344 7.1055,10.418 7.1055,17.051 v 85.246 c 0,2.8398 -1.8945,4.7344 -4.7344,4.7344 l -94.246,-0.004 v -66.301 z m -14.207,-37.887 h -104.19 v -42.621 h 104.19 z m 9.4688,-99.453 h -9.4727 v -28.414 h 9.4727 z m -127.87,-37.887 h -4.7344 v -9.4727 h 142.07 v 9.4727 z m 108.93,9.4727 v 28.414 h -9.4727 v -28.414 z m -18.945,0 v 28.414 h -9.4727 v -28.414 z m -18.941,0 v 28.414 h -9.4727 v -28.414 z m -18.945,0 v 28.414 h -9.4727 v -28.414 z m -18.941,0 v 28.414 h -9.4727 v -28.414 z m -18.945,0 v 28.414 h -9.4727 v -28.414 z m -4.7344,75.773 h -4.7344 v -37.887 h 123.13 v 37.887 z m -33.148,94.715 c 0,-2.8398 1.8945,-4.7344 4.7344,-4.7344 h 52.094 v 66.301 h -52.094 c -2.8398,0 -4.7344,-1.8945 -4.7344,-4.7344 z" />
<path style="stroke-width:2.07662" id="path865" d="m 470.72,409.15 c 0,5.2305 -4.2422,9.4727 -9.4727,9.4727 -5.2305,0 -9.4727,-4.2422 -9.4727,-9.4727 0,-5.2305 4.2422,-9.4727 9.4727,-9.4727 5.2305,0 9.4727,4.2422 9.4727,9.4727" />
<path style="stroke-width:2.07662" id="path867" d="m 361.79,484.93 h -18.941 c -2.8398,0 -4.7344,1.8945 -4.7344,4.7344 0,2.8399 1.8945,4.7344 4.7344,4.7344 h 18.941 c 2.8398,0 4.7344,-1.8945 4.7344,-4.7344 0.004,-2.8398 -1.8906,-4.7344 -4.7344,-4.7344 z" />
<path style="stroke-width:2.07662" id="path869" d="m 361.79,465.98 h -18.941 c -2.8398,0 -4.7344,1.8945 -4.7344,4.7344 0,2.8399 1.8945,4.7344 4.7344,4.7344 h 18.941 c 2.8398,0 4.7344,-1.8945 4.7344,-4.7344 0.004,-2.8398 -1.8906,-4.7344 -4.7344,-4.7344 z" />
<path style="stroke-width:2.07662" id="path871" d="m 404.42,484.93 h 61.566 c 2.8398,0 4.7344,-1.8945 4.7344,-4.7344 v -28.414 c 0,-2.8398 -1.8945,-4.7344 -4.7344,-4.7344 l -61.566,-0.004 c -2.8398,0 -4.7344,1.8945 -4.7344,4.7344 v 28.414 c -0.004,2.8438 1.8906,4.7383 4.7344,4.7383 z m 4.7344,-28.414 h 52.094 v 18.941 h -52.094 z" />
<path style="stroke-width:2.07662" id="path873" d="m 290.76,484.93 c 10.418,0 18.941,-8.5234 18.941,-18.941 0,-10.4176 -8.5234,-18.941 -18.941,-18.941 -10.418,0 -18.941,8.5234 -18.941,18.941 -0.004,10.418 8.5234,18.941 18.941,18.941 z m 0,-28.414 c 5.2109,0 9.4727,4.2617 9.4727,9.4727 0,5.211 -4.2617,9.4727 -9.4727,9.4727 -5.2109,0 -9.4727,-4.2617 -9.4727,-9.4727 0,-5.211 4.2617,-9.4727 9.4727,-9.4727 z" /> </g>
<path sodipodi:nodetypes="csccc" d="m 74.840398,43.876028 c 2.905101,0 2.518845,14.11999 2.790939,21.246821 0.278203,7.286842 0.05561,21.24682 -2.790938,21.24682 L 59.963215,65.122849 Z" style="opacity:0.75;fill:#000000;stroke-width:0.624065" id="path1057" />
<path sodipodi:nodetypes="csccc" d="m 90.134824,39.805862 c 1.881755,0 1.986999,16.681494 1.806296,25.316986 -0.176349,8.427444 0.0228,25.316986 -1.806296,25.316986 L 59.963215,65.122849 Z" style="opacity:0.75;fill:#141414;fill-opacity:1;stroke-width:0.410974" id="path1211" />
<path sodipodi:nodetypes="czccc" d="m 97.780857,35.576469 c 2.066243,0 2.075869,24.237208 2.075869,29.54638 0,5.309172 -0.0012,29.546379 -2.07587,29.546379 L 59.963215,65.122849 Z" style="opacity:0.75;fill:#282828;fill-opacity:1;stroke-width:0.337285" id="path1944" />
<path sodipodi:nodetypes="csccc" d="m 114.91125,30.787504 c 2.24401,0 2.24485,22.419703 2.24485,34.335343 0,11.91564 0.0249,34.335343 -2.24485,34.335343 L 59.963215,65.122849 Z" style="opacity:0.75;fill:#3c3c3c;fill-opacity:1;stroke-width:0.249821" id="path2182" />
<path sodipodi:nodetypes="csccc" d="m 144.03848,30.297731 c 2.22714,0 2.25531,22.987095 2.25531,34.825116 0,11.838021 0.001,34.825116 -2.25531,34.825116 L 59.963215,65.122849 Z" style="opacity:0.75;fill:#505050;fill-opacity:1;stroke-width:0.177872" id="path2304" />
<path sodipodi:nodetypes="csccc" d="m 176.0998,29.616327 c 0.9144,0 0.88319,23.538838 0.88319,35.506522 0,11.967683 0.37871,35.506521 -0.88319,35.506521 L 59.963215,65.122849 Z" style="opacity:0.75;fill:#646464;fill-opacity:1;stroke-width:0.133288" id="path2546" />
<path sodipodi:nodetypes="csccc" d="m 233.29712,37.669459 c 1.93126,0 1.93398,18.27392 1.93398,27.453391 0,9.179472 -0.002,27.453392 -1.93398,27.453392 L 59.963215,65.122849 Z" style="opacity:0.75;fill:#787878;fill-opacity:1;stroke-width:0.0922339" id="path2768" />
<path sodipodi:nodetypes="csccc" d="m 254.68435,44.656842 c 0.46836,0 0.39947,13.634639 0.39947,20.466012 0,6.831373 0.001,20.466012 -0.39947,20.466012 L 59.963215,65.122849 Z" style="opacity:0.75;fill:#8c8c8c;fill-opacity:1;stroke-width:0.0826713" id="path2890" />
<path sodipodi:nodetypes="csccc" d="m 281.38771,53.518476 c 0.2484,0 0.24778,7.73492 0.24778,11.604369 0,3.86945 0.005,11.60437 -0.24778,11.60437 L 59.963215,65.122849 Z" style="opacity:0.75;fill:#a0a0a0;fill-opacity:1;stroke-width:0.0730015" id="path3266" />
<g style="font-style:normal;font-variant:normal;font-weight:bold;font-stretch:normal;font-size:20.1665px;line-height:125%;font-family:'Open Sans';-inkscape-font-specification:'Open Sans Bold';letter-spacing:0px;word-spacing:0px;fill:#ffffff;fill-opacity:1;stroke:none;stroke-width:0.264583px;stroke-linecap:butt;stroke-linejoin:miter;stroke-opacity:1" id="text50092" aria-label="1">
<path id="path920" style="font-style:normal;font-variant:normal;font-weight:bold;font-stretch:normal;font-family:'Open Sans';-inkscape-font-specification:'Open Sans Bold';fill:#ffffff;fill-opacity:1;stroke-width:0.264583px" d="m 73.85754,155.85588 h 3.347954 v -9.50228 l -3.436577,0.70897 v -2.57989 L 77.1858,143.7737 h 3.603974 v 12.08218 h 3.347954 v 2.61928 H 73.85754 Z" /> </g>
<g style="font-style:normal;font-variant:normal;font-weight:bold;font-stretch:normal;font-size:20.1665px;line-height:125%;font-family:'Open Sans';-inkscape-font-specification:'Open Sans Bold';letter-spacing:0px;word-spacing:0px;fill:#ffffff;fill-opacity:1;stroke:none;stroke-width:0.264583px;stroke-linecap:butt;stroke-linejoin:miter;stroke-opacity:1" id="text51382" aria-label="2">
<path id="path923" style="font-style:normal;font-variant:normal;font-weight:bold;font-stretch:normal;font-family:'Open Sans';-inkscape-font-specification:'Open Sans Bold';fill:#ffffff;fill-opacity:1;stroke-width:0.264583px" d="m 113.12724,155.68848 h 6.46943 v 2.78668 h -10.68391 v -2.78668 l 5.36657,-4.73637 q 0.71883,-0.6499 1.06347,-1.27025 0.34464,-0.62036 0.34464,-1.28995 0,-1.03393 -0.69913,-1.66413 -0.68928,-0.6302 -1.84137,-0.6302 -0.88623,0 -1.93985,0.38403 -1.05362,0.37418 -2.25494,1.12254 v -3.22979 q 1.2801,-0.42341 2.53066,-0.64005 1.25056,-0.22648 2.45188,-0.22648 2.63898,0 4.09632,1.16194 1.46719,1.16194 1.46719,3.23964 0,1.20132 -0.62035,2.2451 -0.62036,1.03393 -2.60944,2.77683 z" /> </g>
<g style="font-style:normal;font-variant:normal;font-weight:bold;font-stretch:normal;font-size:20.1665px;line-height:125%;font-family:'Open Sans';-inkscape-font-specification:'Open Sans Bold';letter-spacing:0px;word-spacing:0px;fill:#ffffff;fill-opacity:1;stroke:none;stroke-width:0.264583px;stroke-linecap:butt;stroke-linejoin:miter;stroke-opacity:1" id="text51386" aria-label="3">
<path id="path926" style="font-style:normal;font-variant:normal;font-weight:bold;font-stretch:normal;font-family:'Open Sans';-inkscape-font-specification:'Open Sans Bold';fill:#ffffff;fill-opacity:1;stroke-width:0.264583px" d="m 165.84205,150.26282 q 1.48689,0.38403 2.25495,1.33918 0.77791,0.9453 0.77791,2.41249 0,2.18602 -1.67398,3.32827 -1.67398,1.13239 -4.88407,1.13239 -1.1324,0 -2.27464,-0.18709 -1.1324,-0.17724 -2.2451,-0.54158 v -2.92454 q 1.06347,0.53174 2.10724,0.80745 1.05362,0.26587 2.06785,0.26587 1.50658,0 2.30418,-0.52189 0.80745,-0.52189 0.80745,-1.49673 0,-1.00439 -0.82714,-1.51643 -0.81729,-0.52189 -2.42234,-0.52189 h -1.51643 v -2.44203 h 1.5952 q 1.42781,0 2.12694,-0.44311 0.69913,-0.45296 0.69913,-1.36873 0,-0.84683 -0.67944,-1.30964 -0.67944,-0.4628 -1.92015,-0.4628 -0.91576,0 -1.85122,0.20678 -0.93546,0.20679 -1.86107,0.61051 v -2.77683 q 1.12255,-0.3151 2.22541,-0.47265 1.10285,-0.15755 2.16632,-0.15755 2.86545,0 4.28341,0.9453 1.42781,0.93546 1.42781,2.82607 0,1.28995 -0.67944,2.11709 -0.67944,0.81729 -2.00878,1.15209 z" /> </g>
<g style="font-style:normal;font-variant:normal;font-weight:bold;font-stretch:normal;font-size:20.1665px;line-height:125%;font-family:'Open Sans';-inkscape-font-specification:'Open Sans Bold';letter-spacing:0px;word-spacing:0px;fill:#ffffff;fill-opacity:1;stroke:none;stroke-width:0.264583px;stroke-linecap:butt;stroke-linejoin:miter;stroke-opacity:1" id="text51390" aria-label="4">
<path id="path929" style="font-style:normal;font-variant:normal;font-weight:bold;font-stretch:normal;font-family:'Open Sans';-inkscape-font-specification:'Open Sans Bold';fill:#ffffff;fill-opacity:1;stroke-width:0.264583px" d="m 234.40154,146.89518 -4.1554,6.15432 h 4.1554 z m -0.6302,-3.12148 h 4.21448 v 9.2758 h 2.09739 v 2.7473 h -2.09739 v 2.67836 h -3.58428 v -2.67836 h -6.51866 v -3.24949 z" /> </g>
<g style="font-style:normal;font-variant:normal;font-weight:bold;font-stretch:normal;font-size:20.1665px;line-height:125%;font-family:'Open Sans';-inkscape-font-specification:'Open Sans Bold';letter-spacing:0px;word-spacing:0px;fill:#ffffff;fill-opacity:1;stroke:none;stroke-width:0.264583px;stroke-linecap:butt;stroke-linejoin:miter;stroke-opacity:1" id="text51394" aria-label="5">
<path id="path932" style="font-style:normal;font-variant:normal;font-weight:bold;font-stretch:normal;font-family:'Open Sans';-inkscape-font-specification:'Open Sans Bold';fill:#ffffff;fill-opacity:1;stroke-width:0.264583px" d="m 280.08588,143.48813 h 9.42351 v 2.78668 h -6.40051 v 2.27464 q 0.43327,-0.11816 0.86653,-0.17724 0.44312,-0.0689 0.91577,-0.0689 2.68821,0 4.18494,1.34903 1.49673,1.33918 1.49673,3.74183 0,2.38295 -1.63459,3.73198 -1.62474,1.34903 -4.51973,1.34903 -1.25056,0 -2.48143,-0.24617 -1.22102,-0.23633 -2.43219,-0.72867 v -2.98362 q 1.20133,0.68928 2.27464,1.03392 1.08316,0.34465 2.03831,0.34465 1.37857,0 2.16633,-0.66959 0.7976,-0.67944 0.7976,-1.83153 0,-1.16194 -0.7976,-1.83153 -0.78776,-0.66959 -2.16633,-0.66959 -0.81729,0 -1.7429,0.21663 -0.92561,0.20679 -1.98908,0.6499 z" /> </g> </g>
<g style="display:inline" inkscape:label="lines" id="layer3" inkscape:groupmode="layer">
<path sodipodi:nodetypes="csccc" d="m 74.840398,43.876028 c 2.905101,0 2.518845,14.11999 2.790939,21.246821 0.278203,7.286842 0.05561,21.24682 -2.790938,21.24682 L 59.963215,65.122849 Z" style="fill:none;stroke:#000000;stroke-width:0.264583;stroke-miterlimit:4;stroke-dasharray:none;stroke-opacity:1" id="path8745" />
<path sodipodi:nodetypes="csccc" d="m 90.134824,39.805862 c 1.881755,0 1.986999,16.681494 1.806296,25.316986 -0.176349,8.427444 0.0228,25.316986 -1.806296,25.316986 L 59.963215,65.122849 Z" style="fill:none;stroke:#000000;stroke-width:0.264583;stroke-miterlimit:4;stroke-dasharray:none;stroke-opacity:1" id="path8747" />
<path sodipodi:nodetypes="czccc" d="m 97.780857,35.576469 c 2.066243,0 2.075869,24.237208 2.075869,29.54638 0,5.309172 -0.0012,29.546379 -2.07587,29.546379 L 59.963215,65.122849 Z" style="fill:none;stroke:#000000;stroke-width:0.264583;stroke-miterlimit:4;stroke-dasharray:none;stroke-opacity:1" id="path8749" />
<path sodipodi:nodetypes="csccc" d="m 114.91125,30.787504 c 2.24401,0 2.24485,22.419703 2.24485,34.335343 0,11.91564 0.0249,34.335346 -2.24485,34.335346 L 59.963215,65.122849 Z" style="fill:none;stroke:#000000;stroke-width:0.264583;stroke-miterlimit:4;stroke-dasharray:none;stroke-opacity:1" id="path8751" />
<path sodipodi:nodetypes="csccc" d="m 144.03848,30.297731 c 2.22714,0 2.25531,22.987095 2.25531,34.825116 0,11.838021 0.001,34.825116 -2.25531,34.825116 L 59.963215,65.122849 Z" style="fill:none;stroke:#000000;stroke-width:0.264583;stroke-miterlimit:4;stroke-dasharray:none;stroke-opacity:1" id="path8753" />
<path sodipodi:nodetypes="csccc" d="m 176.0998,29.616327 c 0.9144,0 0.88319,23.538838 0.88319,35.506522 0,11.967683 0.37871,35.506521 -0.88319,35.506521 L 59.963215,65.122849 Z" style="fill:none;stroke:#000000;stroke-width:0.264583;stroke-miterlimit:4;stroke-dasharray:none;stroke-opacity:1" id="path8755" />
<path sodipodi:nodetypes="csccc" d="m 233.29712,37.669459 c 1.93126,0 1.93398,18.27392 1.93398,27.453391 0,9.179472 -0.002,27.453392 -1.93398,27.453392 L 59.963215,65.122849 Z" style="fill:none;stroke:#000000;stroke-width:0.264583;stroke-miterlimit:4;stroke-dasharray:none;stroke-opacity:1" id="path8757" />
<path sodipodi:nodetypes="csccc" d="m 254.68435,44.656842 c 0.46836,0 0.39947,13.634639 0.39947,20.466012 0,6.831373 0.001,20.466012 -0.39947,20.466012 L 59.963215,65.122849 Z" style="fill:none;stroke:#000000;stroke-width:0.264583;stroke-miterlimit:4;stroke-dasharray:none;stroke-opacity:1" id="path8759" />
<path sodipodi:nodetypes="csccc" d="m 281.38771,53.518476 c 0.2484,0 0.24778,7.73492 0.24778,11.604369 0,3.86945 0.005,11.60437 -0.24778,11.60437 L 59.963215,65.122849 Z" style="fill:none;stroke:#000000;stroke-width:0.264583;stroke-miterlimit:4;stroke-dasharray:none;stroke-opacity:1" id="path8761" />
<path id="path9303" d="M 77.721289,-17.594791 V 127.66146" style="fill:none;fill-rule:evenodd;stroke:#000000;stroke-width:0.264583;stroke-linecap:butt;stroke-linejoin:miter;stroke-miterlimit:4;stroke-dasharray:1.05833, 1.05833;stroke-dashoffset:0;stroke-opacity:1" />
<path id="path9385" d="M 92.003383,-17.594791 V 127.66146" style="fill:none;fill-rule:evenodd;stroke:#000000;stroke-width:0.264583;stroke-linecap:butt;stroke-linejoin:miter;stroke-miterlimit:4;stroke-dasharray:1.05833, 1.05833;stroke-dashoffset:0;stroke-opacity:1" />
<path id="path9387" d="M 99.856726,-17.594791 V 127.66146" style="fill:none;fill-rule:evenodd;stroke:#000000;stroke-width:0.264583;stroke-linecap:butt;stroke-linejoin:miter;stroke-miterlimit:4;stroke-dasharray:1.05833, 1.05833;stroke-dashoffset:0;stroke-opacity:1" />
<path id="path9434" d="M 117.15611,-17.594791 V 127.66146" style="fill:none;fill-rule:evenodd;stroke:#000000;stroke-width:0.264583;stroke-linecap:butt;stroke-linejoin:miter;stroke-miterlimit:4;stroke-dasharray:1.05833, 1.05833;stroke-dashoffset:0;stroke-opacity:1" />
<path id="path9436" d="M 146.29379,-17.594791 V 127.66146" style="fill:none;fill-rule:evenodd;stroke:#000000;stroke-width:0.264583;stroke-linecap:butt;stroke-linejoin:miter;stroke-miterlimit:4;stroke-dasharray:1.05833, 1.05833;stroke-dashoffset:0;stroke-opacity:1" />
<path id="path9438" d="M 177.03627,-17.594791 V 127.66146" style="fill:none;fill-rule:evenodd;stroke:#000000;stroke-width:0.264583;stroke-linecap:butt;stroke-linejoin:miter;stroke-miterlimit:4;stroke-dasharray:1.05833, 1.05833;stroke-dashoffset:0;stroke-opacity:1" />
<path id="path9440" d="M 235.2311,-17.594791 V 127.66146" style="fill:none;fill-rule:evenodd;stroke:#000000;stroke-width:0.264583;stroke-linecap:butt;stroke-linejoin:miter;stroke-miterlimit:4;stroke-dasharray:1.05833, 1.05833;stroke-dashoffset:0;stroke-opacity:1" />
<path id="path9442" d="M 255.08738,-17.594791 V 127.66146" style="fill:none;fill-rule:evenodd;stroke:#000000;stroke-width:0.264583;stroke-linecap:butt;stroke-linejoin:miter;stroke-miterlimit:4;stroke-dasharray:1.05833, 1.05833;stroke-dashoffset:0;stroke-opacity:1" />
<path id="path9444" d="M 281.6355,-17.594791 V 127.66146" style="fill:none;fill-rule:evenodd;stroke:#000000;stroke-width:0.264583;stroke-linecap:butt;stroke-linejoin:miter;stroke-miterlimit:4;stroke-dasharray:1.05833, 1.05833;stroke-dashoffset:0;stroke-opacity:1" />
<g style="font-style:normal;font-variant:normal;font-weight:normal;font-stretch:normal;font-size:4.98623px;line-height:125%;font-family:'Open Sans';-inkscape-font-specification:'Open Sans';letter-spacing:0px;word-spacing:0px;fill:#000000;fill-opacity:1;stroke:none;stroke-width:0.264583px;stroke-linecap:butt;stroke-linejoin:miter;stroke-opacity:1" id="text10435" transform="rotate(90)" aria-label="400 mm">
<path id="path935" style="font-style:normal;font-variant:normal;font-weight:normal;font-stretch:normal;font-family:'Open Sans';-inkscape-font-specification:'Open Sans';stroke-width:0.264583px" d="m 4.5741277,-286.36782 -1.2416881,1.94044 h 1.2416881 z m -0.1290381,-0.42851 h 0.6184093 v 2.36895 h 0.5185874 v 0.40903 H 5.0634989 v 0.857 H 4.5741277 v -0.857 h -1.640976 v -0.47477 z" />
<path id="path937" style="font-style:normal;font-variant:normal;font-weight:normal;font-stretch:normal;font-family:'Open Sans';-inkscape-font-specification:'Open Sans';stroke-width:0.264583px" d="m 7.4494879,-286.47251 q -0.3798104,0 -0.5721504,0.37494 -0.1899052,0.3725 -0.1899052,1.12239 0,0.74744 0.1899052,1.12238 0.19234,0.37251 0.5721504,0.37251 0.3822452,0 0.5721504,-0.37251 0.19234,-0.37494 0.19234,-1.12238 0,-0.74989 -0.19234,-1.12239 -0.1899052,-0.37494 -0.5721504,-0.37494 z m 0,-0.38955 q 0.6111054,0 0.9324835,0.4845 0.3238127,0.48207 0.3238127,1.40238 0,0.91787 -0.3238127,1.40237 -0.3213781,0.48207 -0.9324835,0.48207 -0.6111053,0 -0.9349181,-0.48207 -0.3213781,-0.4845 -0.3213781,-1.40237 0,-0.92031 0.3213781,-1.40238 0.3238128,-0.4845 0.9349181,-0.4845 z" />
<path id="path939" style="font-style:normal;font-variant:normal;font-weight:normal;font-stretch:normal;font-family:'Open Sans';-inkscape-font-specification:'Open Sans';stroke-width:0.264583px" d="m 10.624314,-286.47251 q -0.37981,0 -0.57215,0.37494 -0.1899056,0.3725 -0.1899056,1.12239 0,0.74744 0.1899056,1.12238 0.19234,0.37251 0.57215,0.37251 0.382245,0 0.57215,-0.37251 0.19234,-0.37494 0.19234,-1.12238 0,-0.74989 -0.19234,-1.12239 -0.189905,-0.37494 -0.57215,-0.37494 z m 0,-0.38955 q 0.611105,0 0.932484,0.4845 0.323812,0.48207 0.323812,1.40238 0,0.91787 -0.323812,1.40237 -0.321379,0.48207 -0.932484,0.48207 -0.611105,0 -0.934918,-0.48207 -0.3213781,-0.4845 -0.3213781,-1.40237 0,-0.92031 0.3213781,-1.40238 0.323813,-0.4845 0.934918,-0.4845 z" />
<path id="path941" style="font-style:normal;font-variant:normal;font-weight:normal;font-stretch:normal;font-family:'Open Sans';-inkscape-font-specification:'Open Sans';stroke-width:0.264583px" d="m 15.800449,-285.36473 q 0.167993,-0.3019 0.401723,-0.44555 0.233729,-0.14365 0.550238,-0.14365 0.42607,0 0.657364,0.29947 0.231295,0.29703 0.231295,0.84727 v 1.64584 h -0.450416 v -1.63123 q 0,-0.39199 -0.138777,-0.58189 -0.138777,-0.18991 -0.423635,-0.18991 -0.348159,0 -0.550238,0.2313 -0.202079,0.23129 -0.202079,0.63058 v 1.54115 h -0.450416 v -1.63123 q 0,-0.39442 -0.138777,-0.58189 -0.138777,-0.18991 -0.428504,-0.18991 -0.34329,0 -0.545369,0.23373 -0.202078,0.2313 -0.202078,0.62815 v 1.54115 h -0.450417 v -2.72684 h 0.450417 v 0.42363 q 0.153385,-0.25077 0.367637,-0.37007 0.214252,-0.1193 0.508848,-0.1193 0.297032,0 0.50398,0.15095 0.209382,0.15095 0.309204,0.43825 z" />
<path id="path943" style="font-style:normal;font-variant:normal;font-weight:normal;font-stretch:normal;font-family:'Open Sans';-inkscape-font-specification:'Open Sans';stroke-width:0.264583px" d="m 20.660075,-285.36473 q 0.167993,-0.3019 0.401723,-0.44555 0.233729,-0.14365 0.550238,-0.14365 0.426069,0 0.657364,0.29947 0.231295,0.29703 0.231295,0.84727 v 1.64584 h -0.450416 v -1.63123 q 0,-0.39199 -0.138777,-0.58189 -0.138777,-0.18991 -0.423635,-0.18991 -0.348159,0 -0.550238,0.2313 -0.202079,0.23129 -0.202079,0.63058 v 1.54115 h -0.450416 v -1.63123 q 0,-0.39442 -0.138777,-0.58189 -0.138777,-0.18991 -0.428504,-0.18991 -0.34329,0 -0.545369,0.23373 -0.202079,0.2313 -0.202079,0.62815 v 1.54115 h -0.450416 v -2.72684 h 0.450416 v 0.42363 q 0.153385,-0.25077 0.367637,-0.37007 0.214253,-0.1193 0.508849,-0.1193 0.297031,0 0.503979,0.15095 0.209383,0.15095 0.309205,0.43825 z" /> </g>
<g style="font-style:normal;font-variant:normal;font-weight:normal;font-stretch:normal;font-size:4.98623px;line-height:125%;font-family:'Open Sans';-inkscape-font-specification:'Open Sans';letter-spacing:0px;word-spacing:0px;fill:#000000;fill-opacity:1;stroke:none;stroke-width:0.264583px;stroke-linecap:butt;stroke-linejoin:miter;stroke-opacity:1" id="text12605" transform="rotate(90)" aria-label="200 mm">
<path id="path946" style="font-style:normal;font-variant:normal;font-weight:normal;font-stretch:normal;font-family:'Open Sans';-inkscape-font-specification:'Open Sans';stroke-width:0.264583px" d="m 3.6465137,-257.02709 h 1.7164512 v 0.4139 H 3.0548858 v -0.4139 q 0.2799885,-0.28972 0.7620557,-0.77666 0.4845018,-0.48937 0.6086706,-0.63058 0.2361642,-0.26538 0.3286822,-0.44798 0.094953,-0.18504 0.094953,-0.36277 0,-0.28973 -0.2045134,-0.47233 -0.2020786,-0.1826 -0.5283261,-0.1826 -0.2312948,0 -0.4893712,0.0803 -0.2556416,0.0803 -0.5478036,0.24347 v -0.49667 q 0.2970313,-0.1193 0.5551077,-0.18017 0.2580763,-0.0609 0.4723284,-0.0609 0.5648463,0 0.9008325,0.28243 0.3359862,0.28242 0.3359862,0.75475 0,0.22399 -0.085214,0.42607 -0.082779,0.19964 -0.3043353,0.47233 -0.060867,0.0706 -0.3871145,0.40902 -0.3262475,0.33599 -0.92031,0.94222 z" />
<path id="path948" style="font-style:normal;font-variant:normal;font-weight:normal;font-stretch:normal;font-family:'Open Sans';-inkscape-font-specification:'Open Sans';stroke-width:0.264583px" d="m 7.4494879,-259.92436 q -0.3798104,0 -0.5721504,0.37494 -0.1899052,0.37251 -0.1899052,1.12239 0,0.74745 0.1899052,1.12239 0.19234,0.37251 0.5721504,0.37251 0.3822452,0 0.5721504,-0.37251 0.19234,-0.37494 0.19234,-1.12239 0,-0.74988 -0.19234,-1.12239 -0.1899052,-0.37494 -0.5721504,-0.37494 z m 0,-0.38955 q 0.6111054,0 0.9324835,0.4845 0.3238127,0.48207 0.3238127,1.40238 0,0.91788 -0.3238127,1.40238 -0.3213781,0.48207 -0.9324835,0.48207 -0.6111053,0 -0.9349181,-0.48207 -0.3213781,-0.4845 -0.3213781,-1.40238 0,-0.92031 0.3213781,-1.40238 0.3238128,-0.4845 0.9349181,-0.4845 z" />
<path id="path950" style="font-style:normal;font-variant:normal;font-weight:normal;font-stretch:normal;font-family:'Open Sans';-inkscape-font-specification:'Open Sans';stroke-width:0.264583px" d="m 10.624314,-259.92436 q -0.37981,0 -0.57215,0.37494 -0.1899056,0.37251 -0.1899056,1.12239 0,0.74745 0.1899056,1.12239 0.19234,0.37251 0.57215,0.37251 0.382245,0 0.57215,-0.37251 0.19234,-0.37494 0.19234,-1.12239 0,-0.74988 -0.19234,-1.12239 -0.189905,-0.37494 -0.57215,-0.37494 z m 0,-0.38955 q 0.611105,0 0.932484,0.4845 0.323812,0.48207 0.323812,1.40238 0,0.91788 -0.323812,1.40238 -0.321379,0.48207 -0.932484,0.48207 -0.611105,0 -0.934918,-0.48207 -0.3213781,-0.4845 -0.3213781,-1.40238 0,-0.92031 0.3213781,-1.40238 0.323813,-0.4845 0.934918,-0.4845 z" />
<path id="path952" style="font-style:normal;font-variant:normal;font-weight:normal;font-stretch:normal;font-family:'Open Sans';-inkscape-font-specification:'Open Sans';stroke-width:0.264583px" d="m 15.800449,-258.81658 q 0.167993,-0.3019 0.401723,-0.44554 0.233729,-0.14365 0.550238,-0.14365 0.42607,0 0.657364,0.29947 0.231295,0.29703 0.231295,0.84726 v 1.64585 h -0.450416 v -1.63124 q 0,-0.39198 -0.138777,-0.58189 -0.138777,-0.1899 -0.423635,-0.1899 -0.348159,0 -0.550238,0.23129 -0.202079,0.2313 -0.202079,0.63059 v 1.54115 h -0.450416 v -1.63124 q 0,-0.39442 -0.138777,-0.58189 -0.138777,-0.1899 -0.428504,-0.1899 -0.34329,0 -0.545369,0.23373 -0.202078,0.23129 -0.202078,0.62815 v 1.54115 h -0.450417 v -2.72684 h 0.450417 v 0.42363 q 0.153385,-0.25077 0.367637,-0.37007 0.214252,-0.1193 0.508848,-0.1193 0.297032,0 0.50398,0.15095 0.209382,0.15095 0.309204,0.43824 z" />
<path id="path954" style="font-style:normal;font-variant:normal;font-weight:normal;font-stretch:normal;font-family:'Open Sans';-inkscape-font-specification:'Open Sans';stroke-width:0.264583px" d="m 20.660075,-258.81658 q 0.167993,-0.3019 0.401723,-0.44554 0.233729,-0.14365 0.550238,-0.14365 0.426069,0 0.657364,0.29947 0.231295,0.29703 0.231295,0.84726 v 1.64585 h -0.450416 v -1.63124 q 0,-0.39198 -0.138777,-0.58189 -0.138777,-0.1899 -0.423635,-0.1899 -0.348159,0 -0.550238,0.23129 -0.202079,0.2313 -0.202079,0.63059 v 1.54115 h -0.450416 v -1.63124 q 0,-0.39442 -0.138777,-0.58189 -0.138777,-0.1899 -0.428504,-0.1899 -0.34329,0 -0.545369,0.23373 -0.202079,0.23129 -0.202079,0.62815 v 1.54115 h -0.450416 v -2.72684 h 0.450416 v 0.42363 q 0.153385,-0.25077 0.367637,-0.37007 0.214253,-0.1193 0.508849,-0.1193 0.297031,0 0.503979,0.15095 0.209383,0.15095 0.309205,0.43824 z" /> </g>
<g style="font-style:normal;font-variant:normal;font-weight:normal;font-stretch:normal;font-size:4.98623px;line-height:125%;font-family:'Open Sans';-inkscape-font-specification:'Open Sans';letter-spacing:0px;word-spacing:0px;fill:#000000;fill-opacity:1;stroke:none;stroke-width:0.264583px;stroke-linecap:butt;stroke-linejoin:miter;stroke-opacity:1" id="text13711" transform="rotate(90)" aria-label="135 mm">
<path id="path957" style="font-style:normal;font-variant:normal;font-weight:normal;font-stretch:normal;font-family:'Open Sans';-inkscape-font-specification:'Open Sans';stroke-width:0.264583px" d="m 3.3080928,-237.17079 h 0.8034453 v -2.77311 l -0.8740511,0.1753 v -0.44798 l 0.8691817,-0.1753 h 0.4918059 v 3.22109 h 0.8034452 v 0.41389 h -2.093827 z" />
<path id="path959" style="font-style:normal;font-variant:normal;font-weight:normal;font-stretch:normal;font-family:'Open Sans';-inkscape-font-specification:'Open Sans';stroke-width:0.264583px" d="m 7.8877308,-238.71682 q 0.353029,0.0755 0.5502383,0.31408 0.1996439,0.2386 0.1996439,0.58919 0,0.53807 -0.3700717,0.83266 -0.3700718,0.2946 -1.0517829,0.2946 -0.2288602,0 -0.4723284,-0.0463 -0.2410336,-0.0438 -0.4991099,-0.13391 v -0.47476 q 0.2045133,0.1193 0.4479816,0.18017 0.2434682,0.0609 0.5088486,0.0609 0.4625897,0 0.7036233,-0.1826 0.2434682,-0.1826 0.2434682,-0.53076 0,-0.32138 -0.2264254,-0.50154 -0.2239908,-0.18261 -0.6257135,-0.18261 H 6.8724682 v -0.40415 h 0.4431122 q 0.3627677,0 0.5551076,-0.14365 0.1923399,-0.14608 0.1923399,-0.41876 0,-0.27999 -0.1996439,-0.42851 -0.1972093,-0.15095 -0.5672811,-0.15095 -0.2020786,0 -0.4333735,0.0438 -0.2312948,0.0438 -0.5088486,0.13634 v -0.43824 q 0.2799885,-0.0779 0.5234567,-0.11687 0.245903,-0.0389 0.4625897,-0.0389 0.559977,0 0.8862245,0.25564 0.3262474,0.2532 0.3262474,0.68658 0,0.3019 -0.1728624,0.51128 -0.1728625,0.20695 -0.4918059,0.28729 z" />
<path id="path961" style="font-style:normal;font-variant:normal;font-weight:normal;font-stretch:normal;font-family:'Open Sans';-inkscape-font-specification:'Open Sans';stroke-width:0.264583px" d="m 9.5774006,-240.39188 h 1.9307034 v 0.4139 h -1.480287 v 0.89109 q 0.107126,-0.0365 0.214252,-0.0536 0.107126,-0.0195 0.214252,-0.0195 0.608671,0 0.964134,0.33355 0.355464,0.33355 0.355464,0.90327 0,0.58676 -0.365202,0.91301 -0.365203,0.32381 -1.029871,0.32381 -0.22886,0 -0.4674592,-0.039 -0.2361642,-0.0389 -0.4893712,-0.11686 v -0.49424 q 0.2191214,0.1193 0.4528509,0.17773 0.2337295,0.0584 0.4942405,0.0584 0.4212,0 0.667103,-0.22155 0.245903,-0.22156 0.245903,-0.60137 0,-0.37981 -0.245903,-0.60137 -0.245903,-0.22155 -0.667103,-0.22155 -0.197209,0 -0.3944185,0.0438 -0.1947746,0.0438 -0.3992879,0.13634 z" />
<path id="path963" style="font-style:normal;font-variant:normal;font-weight:normal;font-stretch:normal;font-family:'Open Sans';-inkscape-font-specification:'Open Sans';stroke-width:0.264583px" d="m 15.800449,-238.96028 q 0.167993,-0.30191 0.401723,-0.44555 0.233729,-0.14365 0.550238,-0.14365 0.42607,0 0.657364,0.29947 0.231295,0.29703 0.231295,0.84727 v 1.64584 h -0.450416 v -1.63123 q 0,-0.39199 -0.138777,-0.58189 -0.138777,-0.18991 -0.423635,-0.18991 -0.348159,0 -0.550238,0.2313 -0.202079,0.23129 -0.202079,0.63058 v 1.54115 h -0.450416 v -1.63123 q 0,-0.39442 -0.138777,-0.58189 -0.138777,-0.18991 -0.428504,-0.18991 -0.34329,0 -0.545369,0.23373 -0.202078,0.2313 -0.202078,0.62815 v 1.54115 h -0.450417 v -2.72684 h 0.450417 v 0.42363 q 0.153385,-0.25077 0.367637,-0.37007 0.214252,-0.1193 0.508848,-0.1193 0.297032,0 0.50398,0.15095 0.209382,0.15095 0.309204,0.43825 z" />
<path id="path965" style="font-style:normal;font-variant:normal;font-weight:normal;font-stretch:normal;font-family:'Open Sans';-inkscape-font-specification:'Open Sans';stroke-width:0.264583px" d="m 20.660075,-238.96028 q 0.167993,-0.30191 0.401723,-0.44555 0.233729,-0.14365 0.550238,-0.14365 0.426069,0 0.657364,0.29947 0.231295,0.29703 0.231295,0.84727 v 1.64584 h -0.450416 v -1.63123 q 0,-0.39199 -0.138777,-0.58189 -0.138777,-0.18991 -0.423635,-0.18991 -0.348159,0 -0.550238,0.2313 -0.202079,0.23129 -0.202079,0.63058 v 1.54115 h -0.450416 v -1.63123 q 0,-0.39442 -0.138777,-0.58189 -0.138777,-0.18991 -0.428504,-0.18991 -0.34329,0 -0.545369,0.23373 -0.202079,0.2313 -0.202079,0.62815 v 1.54115 h -0.450416 v -2.72684 h 0.450416 v 0.42363 q 0.153385,-0.25077 0.367637,-0.37007 0.214253,-0.1193 0.508849,-0.1193 0.297031,0 0.503979,0.15095 0.209383,0.15095 0.309205,0.43825 z" /> </g>
<g style="font-style:normal;font-variant:normal;font-weight:normal;font-stretch:normal;font-size:4.98623px;line-height:125%;font-family:'Open Sans';-inkscape-font-specification:'Open Sans';letter-spacing:0px;word-spacing:0px;fill:#000000;fill-opacity:1;stroke:none;stroke-width:0.264583px;stroke-linecap:butt;stroke-linejoin:miter;stroke-opacity:1" id="text16005" transform="rotate(90)" aria-label="70 mm">
<path id="path968" style="font-style:normal;font-variant:normal;font-weight:normal;font-stretch:normal;font-family:'Open Sans';-inkscape-font-specification:'Open Sans';stroke-width:0.264583px" d="m 5.9497233,-182.19704 h 2.3372953 v 0.20938 l -1.319598,3.4256 h -0.513718 l 1.2416881,-3.22108 H 5.9497233 Z" />
<path id="path970" style="font-style:normal;font-variant:normal;font-weight:normal;font-stretch:normal;font-family:'Open Sans';-inkscape-font-specification:'Open Sans';stroke-width:0.264583px" d="m 10.300501,-181.87323 q -0.3798104,0 -0.5721503,0.37495 -0.1899052,0.3725 -0.1899052,1.12238 0,0.74745 0.1899052,1.12239 0.1923399,0.37251 0.5721503,0.37251 0.382245,0 0.572151,-0.37251 0.192339,-0.37494 0.192339,-1.12239 0,-0.74988 -0.192339,-1.12238 -0.189906,-0.37495 -0.572151,-0.37495 z m 0,-0.38954 q 0.611105,0 0.932484,0.4845 0.323812,0.48206 0.323812,1.40237 0,0.91788 -0.323812,1.40238 -0.321379,0.48207 -0.932484,0.48207 -0.6111052,0 -0.934918,-0.48207 -0.3213781,-0.4845 -0.3213781,-1.40238 0,-0.92031 0.3213781,-1.40237 0.3238128,-0.4845 0.934918,-0.4845 z" />
<path id="path972" style="font-style:normal;font-variant:normal;font-weight:normal;font-stretch:normal;font-family:'Open Sans';-inkscape-font-specification:'Open Sans';stroke-width:0.264583px" d="m 15.476636,-180.76545 q 0.167993,-0.3019 0.401723,-0.44554 0.23373,-0.14365 0.550238,-0.14365 0.42607,0 0.657365,0.29947 0.231294,0.29703 0.231294,0.84727 v 1.64584 H 16.86684 v -1.63123 q 0,-0.39199 -0.138777,-0.58189 -0.138777,-0.18991 -0.423635,-0.18991 -0.348159,0 -0.550238,0.2313 -0.202078,0.23129 -0.202078,0.63058 v 1.54115 h -0.450417 v -1.63123 q 0,-0.39442 -0.138777,-0.58189 -0.138777,-0.18991 -0.428504,-0.18991 -0.34329,0 -0.545369,0.23373 -0.202078,0.2313 -0.202078,0.62815 v 1.54115 H 13.33655 v -2.72684 h 0.450417 v 0.42363 q 0.153385,-0.25077 0.367637,-0.37007 0.214252,-0.1193 0.508848,-0.1193 0.297032,0 0.50398,0.15095 0.209382,0.15095 0.309204,0.43824 z" />
<path id="path974" style="font-style:normal;font-variant:normal;font-weight:normal;font-stretch:normal;font-family:'Open Sans';-inkscape-font-specification:'Open Sans';stroke-width:0.264583px" d="m 20.336263,-180.76545 q 0.167993,-0.3019 0.401722,-0.44554 0.23373,-0.14365 0.550239,-0.14365 0.426069,0 0.657364,0.29947 0.231295,0.29703 0.231295,0.84727 v 1.64584 h -0.450417 v -1.63123 q 0,-0.39199 -0.138777,-0.58189 -0.138776,-0.18991 -0.423634,-0.18991 -0.34816,0 -0.550239,0.2313 -0.202078,0.23129 -0.202078,0.63058 v 1.54115 h -0.450416 v -1.63123 q 0,-0.39442 -0.138777,-0.58189 -0.138777,-0.18991 -0.428505,-0.18991 -0.34329,0 -0.545368,0.23373 -0.202079,0.2313 -0.202079,0.62815 v 1.54115 h -0.450416 v -2.72684 h 0.450416 v 0.42363 q 0.153385,-0.25077 0.367637,-0.37007 0.214252,-0.1193 0.508849,-0.1193 0.297031,0 0.503979,0.15095 0.209383,0.15095 0.309205,0.43824 z" /> </g>
<g style="font-style:normal;font-variant:normal;font-weight:normal;font-stretch:normal;font-size:4.98623px;line-height:125%;font-family:'Open Sans';-inkscape-font-specification:'Open Sans';letter-spacing:0px;word-spacing:0px;fill:#000000;fill-opacity:1;stroke:none;stroke-width:0.264583px;stroke-linecap:butt;stroke-linejoin:miter;stroke-opacity:1" id="text17683" transform="rotate(90)" aria-label="50 mm">
<path id="path977" style="font-style:normal;font-variant:normal;font-weight:normal;font-stretch:normal;font-family:'Open Sans';-inkscape-font-specification:'Open Sans';stroke-width:0.264583px" d="m 6.0787615,-151.45456 h 1.9307032 v 0.41389 h -1.480287 v 0.8911 q 0.1071261,-0.0365 0.2142521,-0.0536 0.107126,-0.0195 0.2142521,-0.0195 0.6086706,0 0.9641343,0.33355 0.3554636,0.33355 0.3554636,0.90327 0,0.58676 -0.3652024,0.913 -0.3652023,0.32382 -1.0298707,0.32382 -0.2288601,0 -0.467459,-0.039 -0.2361642,-0.0389 -0.4893712,-0.11686 v -0.49424 q 0.2191214,0.11929 0.4528509,0.17773 0.2337296,0.0584 0.4942406,0.0584 0.4212001,0 0.667103,-0.22156 0.2459029,-0.22155 0.2459029,-0.60136 0,-0.37981 -0.2459029,-0.60137 -0.2459029,-0.22156 -0.667103,-0.22156 -0.1972093,0 -0.3944186,0.0438 -0.1947746,0.0438 -0.3992879,0.13634 z" />
<path id="path979" style="font-style:normal;font-variant:normal;font-weight:normal;font-stretch:normal;font-family:'Open Sans';-inkscape-font-specification:'Open Sans';stroke-width:0.264583px" d="m 10.300501,-151.13075 q -0.3798104,0 -0.5721503,0.37494 -0.1899052,0.37251 -0.1899052,1.12239 0,0.74745 0.1899052,1.12239 0.1923399,0.37251 0.5721503,0.37251 0.382245,0 0.572151,-0.37251 0.192339,-0.37494 0.192339,-1.12239 0,-0.74988 -0.192339,-1.12239 -0.189906,-0.37494 -0.572151,-0.37494 z m 0,-0.38955 q 0.611105,0 0.932484,0.4845 0.323812,0.48207 0.323812,1.40238 0,0.91788 -0.323812,1.40238 -0.321379,0.48207 -0.932484,0.48207 -0.6111052,0 -0.934918,-0.48207 -0.3213781,-0.4845 -0.3213781,-1.40238 0,-0.92031 0.3213781,-1.40238 0.3238128,-0.4845 0.934918,-0.4845 z" />
<path id="path981" style="font-style:normal;font-variant:normal;font-weight:normal;font-stretch:normal;font-family:'Open Sans';-inkscape-font-specification:'Open Sans';stroke-width:0.264583px" d="m 15.476636,-150.02297 q 0.167993,-0.3019 0.401723,-0.44554 0.23373,-0.14365 0.550238,-0.14365 0.42607,0 0.657365,0.29946 0.231294,0.29704 0.231294,0.84727 v 1.64585 H 16.86684 v -1.63124 q 0,-0.39198 -0.138777,-0.58189 -0.138777,-0.1899 -0.423635,-0.1899 -0.348159,0 -0.550238,0.23129 -0.202078,0.2313 -0.202078,0.63059 v 1.54115 h -0.450417 v -1.63124 q 0,-0.39442 -0.138777,-0.58189 -0.138777,-0.1899 -0.428504,-0.1899 -0.34329,0 -0.545369,0.23373 -0.202078,0.23129 -0.202078,0.62815 v 1.54115 H 13.33655 v -2.72684 h 0.450417 v 0.42363 q 0.153385,-0.25077 0.367637,-0.37007 0.214252,-0.1193 0.508848,-0.1193 0.297032,0 0.50398,0.15095 0.209382,0.15095 0.309204,0.43824 z" />
<path id="path983" style="font-style:normal;font-variant:normal;font-weight:normal;font-stretch:normal;font-family:'Open Sans';-inkscape-font-specification:'Open Sans';stroke-width:0.264583px" d="m 20.336263,-150.02297 q 0.167993,-0.3019 0.401722,-0.44554 0.23373,-0.14365 0.550239,-0.14365 0.426069,0 0.657364,0.29946 0.231295,0.29704 0.231295,0.84727 v 1.64585 h -0.450417 v -1.63124 q 0,-0.39198 -0.138777,-0.58189 -0.138776,-0.1899 -0.423634,-0.1899 -0.34816,0 -0.550239,0.23129 -0.202078,0.2313 -0.202078,0.63059 v 1.54115 h -0.450416 v -1.63124 q 0,-0.39442 -0.138777,-0.58189 -0.138777,-0.1899 -0.428505,-0.1899 -0.34329,0 -0.545368,0.23373 -0.202079,0.23129 -0.202079,0.62815 v 1.54115 h -0.450416 v -2.72684 h 0.450416 v 0.42363 q 0.153385,-0.25077 0.367637,-0.37007 0.214252,-0.1193 0.508849,-0.1193 0.297031,0 0.503979,0.15095 0.209383,0.15095 0.309205,0.43824 z" /> </g>
<g style="font-style:normal;font-variant:normal;font-weight:normal;font-stretch:normal;font-size:4.98623px;line-height:125%;font-family:'Open Sans';-inkscape-font-specification:'Open Sans';letter-spacing:0px;word-spacing:0px;fill:#000000;fill-opacity:1;stroke:none;stroke-width:0.264583px;stroke-linecap:butt;stroke-linejoin:miter;stroke-opacity:1" id="text18941" transform="rotate(90)" aria-label="35 mm">
<path id="path986" style="font-style:normal;font-variant:normal;font-weight:normal;font-stretch:normal;font-family:'Open Sans';-inkscape-font-specification:'Open Sans';stroke-width:0.264583px" d="m 7.5639178,-120.64185 q 0.353029,0.0755 0.5502383,0.31407 0.199644,0.2386 0.199644,0.5892 0,0.53806 -0.3700718,0.83266 -0.3700717,0.2946 -1.0517829,0.2946 -0.2288601,0 -0.4723284,-0.0463 -0.2410335,-0.0438 -0.4991099,-0.13391 v -0.47476 q 0.2045133,0.1193 0.4479816,0.18016 0.2434683,0.0609 0.5088487,0.0609 0.4625896,0 0.7036232,-0.1826 0.2434683,-0.1826 0.2434683,-0.53076 0,-0.32138 -0.2264255,-0.50155 -0.2239908,-0.1826 -0.6257134,-0.1826 H 6.5486552 v -0.40416 h 0.4431122 q 0.3627677,0 0.5551077,-0.14364 0.1923399,-0.14608 0.1923399,-0.41877 0,-0.27999 -0.199644,-0.4285 -0.1972093,-0.15095 -0.567281,-0.15095 -0.2020787,0 -0.4333735,0.0438 -0.2312949,0.0438 -0.5088487,0.13634 v -0.43824 q 0.2799885,-0.0779 0.5234568,-0.11686 0.2459029,-0.039 0.4625897,-0.039 0.5599769,0 0.8862244,0.25564 0.3262475,0.25321 0.3262475,0.68658 0,0.3019 -0.1728625,0.51129 -0.1728624,0.20695 -0.4918059,0.28729 z" />
<path id="path988" style="font-style:normal;font-variant:normal;font-weight:normal;font-stretch:normal;font-family:'Open Sans';-inkscape-font-specification:'Open Sans';stroke-width:0.264583px" d="m 9.2535876,-122.31691 h 1.9307034 v 0.41389 H 9.7040039 v 0.8911 q 0.107126,-0.0365 0.2142521,-0.0536 0.107126,-0.0195 0.214252,-0.0195 0.608671,0 0.964134,0.33355 0.355464,0.33355 0.355464,0.90327 0,0.58676 -0.365202,0.913 -0.365203,0.32382 -1.029871,0.32382 -0.2288603,0 -0.4674592,-0.039 -0.2361642,-0.0389 -0.4893712,-0.11686 v -0.49424 q 0.2191214,0.11929 0.452851,0.17773 0.2337295,0.0584 0.4942404,0.0584 0.4212,0 0.667103,-0.22156 0.245903,-0.22155 0.245903,-0.60136 0,-0.37981 -0.245903,-0.60137 -0.245903,-0.22156 -0.667103,-0.22156 -0.1972092,0 -0.3944184,0.0438 -0.1947747,0.0438 -0.399288,0.13634 z" />
<path id="path990" style="font-style:normal;font-variant:normal;font-weight:normal;font-stretch:normal;font-family:'Open Sans';-inkscape-font-specification:'Open Sans';stroke-width:0.264583px" d="m 15.476636,-120.88532 q 0.167993,-0.3019 0.401723,-0.44555 0.23373,-0.14364 0.550238,-0.14364 0.42607,0 0.657365,0.29946 0.231294,0.29704 0.231294,0.84727 v 1.64585 H 16.86684 v -1.63124 q 0,-0.39198 -0.138777,-0.58189 -0.138777,-0.1899 -0.423635,-0.1899 -0.348159,0 -0.550238,0.23129 -0.202078,0.2313 -0.202078,0.63059 v 1.54115 h -0.450417 v -1.63124 q 0,-0.39442 -0.138777,-0.58189 -0.138777,-0.1899 -0.428504,-0.1899 -0.34329,0 -0.545369,0.23373 -0.202078,0.23129 -0.202078,0.62815 v 1.54115 H 13.33655 v -2.72685 h 0.450417 v 0.42364 q 0.153385,-0.25077 0.367637,-0.37007 0.214252,-0.1193 0.508848,-0.1193 0.297032,0 0.50398,0.15095 0.209382,0.15095 0.309204,0.43824 z" />
<path id="path992" style="font-style:normal;font-variant:normal;font-weight:normal;font-stretch:normal;font-family:'Open Sans';-inkscape-font-specification:'Open Sans';stroke-width:0.264583px" d="m 20.336263,-120.88532 q 0.167993,-0.3019 0.401722,-0.44555 0.23373,-0.14364 0.550239,-0.14364 0.426069,0 0.657364,0.29946 0.231295,0.29704 0.231295,0.84727 v 1.64585 h -0.450417 v -1.63124 q 0,-0.39198 -0.138777,-0.58189 -0.138776,-0.1899 -0.423634,-0.1899 -0.34816,0 -0.550239,0.23129 -0.202078,0.2313 -0.202078,0.63059 v 1.54115 h -0.450416 v -1.63124 q 0,-0.39442 -0.138777,-0.58189 -0.138777,-0.1899 -0.428505,-0.1899 -0.34329,0 -0.545368,0.23373 -0.202079,0.23129 -0.202079,0.62815 v 1.54115 h -0.450416 v -2.72685 h 0.450416 v 0.42364 q 0.153385,-0.25077 0.367637,-0.37007 0.214252,-0.1193 0.508849,-0.1193 0.297031,0 0.503979,0.15095 0.209383,0.15095 0.309205,0.43824 z" /> </g>
<g style="font-style:normal;font-variant:normal;font-weight:normal;font-stretch:normal;font-size:4.98623px;line-height:125%;font-family:'Open Sans';-inkscape-font-specification:'Open Sans';letter-spacing:0px;word-spacing:0px;fill:#000000;fill-opacity:1;stroke:none;stroke-width:0.264583px;stroke-linecap:butt;stroke-linejoin:miter;stroke-opacity:1" id="text18945" transform="rotate(90)" aria-label="24 mm">
<path id="path995" style="font-style:normal;font-variant:normal;font-weight:normal;font-stretch:normal;font-family:'Open Sans';-inkscape-font-specification:'Open Sans';stroke-width:0.264583px" d="m 6.4975269,-101.72584 h 1.7164512 v 0.4139 H 5.905899 v -0.4139 q 0.2799885,-0.28973 0.7620556,-0.77666 0.4845019,-0.48937 0.6086707,-0.63059 0.2361642,-0.26538 0.3286821,-0.44798 0.094953,-0.18503 0.094953,-0.36276 0,-0.28973 -0.2045134,-0.47233 -0.2020786,-0.1826 -0.5283261,-0.1826 -0.2312948,0 -0.4893712,0.0803 -0.2556417,0.0803 -0.5478036,0.24347 v -0.49668 q 0.2970313,-0.1193 0.5551077,-0.18016 0.2580763,-0.0609 0.4723284,-0.0609 0.5648463,0 0.9008325,0.28242 0.3359862,0.28243 0.3359862,0.75475 0,0.224 -0.085214,0.42607 -0.082779,0.19965 -0.3043353,0.47233 -0.060867,0.0706 -0.3871145,0.40903 -0.3262475,0.33598 -0.92031,0.94222 z" />
<path id="path997" style="font-style:normal;font-variant:normal;font-weight:normal;font-stretch:normal;font-family:'Open Sans';-inkscape-font-specification:'Open Sans';stroke-width:0.264583px" d="m 10.599967,-104.51842 -1.241688,1.94044 h 1.241688 z m -0.129038,-0.4285 h 0.618409 v 2.36894 h 0.518588 v 0.40903 h -0.518588 v 0.85701 h -0.489371 v -0.85701 H 8.958991 v -0.47476 z" />
<path id="path999" style="font-style:normal;font-variant:normal;font-weight:normal;font-stretch:normal;font-family:'Open Sans';-inkscape-font-specification:'Open Sans';stroke-width:0.264583px" d="m 15.476636,-103.51533 q 0.167993,-0.3019 0.401723,-0.44555 0.23373,-0.14364 0.550238,-0.14364 0.42607,0 0.657365,0.29946 0.231294,0.29703 0.231294,0.84727 v 1.64585 H 16.86684 v -1.63124 q 0,-0.39198 -0.138777,-0.58189 -0.138777,-0.1899 -0.423635,-0.1899 -0.348159,0 -0.550238,0.23129 -0.202078,0.23129 -0.202078,0.63058 v 1.54116 h -0.450417 v -1.63124 q 0,-0.39442 -0.138777,-0.58189 -0.138777,-0.1899 -0.428504,-0.1899 -0.34329,0 -0.545369,0.23372 -0.202078,0.2313 -0.202078,0.62815 v 1.54116 H 13.33655 v -2.72685 h 0.450417 v 0.42364 q 0.153385,-0.25078 0.367637,-0.37007 0.214252,-0.1193 0.508848,-0.1193 0.297032,0 0.50398,0.15095 0.209382,0.15095 0.309204,0.43824 z" />
<path id="path1001" style="font-style:normal;font-variant:normal;font-weight:normal;font-stretch:normal;font-family:'Open Sans';-inkscape-font-specification:'Open Sans';stroke-width:0.264583px" d="m 20.336263,-103.51533 q 0.167993,-0.3019 0.401722,-0.44555 0.23373,-0.14364 0.550239,-0.14364 0.426069,0 0.657364,0.29946 0.231295,0.29703 0.231295,0.84727 v 1.64585 h -0.450417 v -1.63124 q 0,-0.39198 -0.138777,-0.58189 -0.138776,-0.1899 -0.423634,-0.1899 -0.34816,0 -0.550239,0.23129 -0.202078,0.23129 -0.202078,0.63058 v 1.54116 h -0.450416 v -1.63124 q 0,-0.39442 -0.138777,-0.58189 -0.138777,-0.1899 -0.428505,-0.1899 -0.34329,0 -0.545368,0.23372 -0.202079,0.2313 -0.202079,0.62815 v 1.54116 h -0.450416 v -2.72685 h 0.450416 v 0.42364 q 0.153385,-0.25078 0.367637,-0.37007 0.214252,-0.1193 0.508849,-0.1193 0.297031,0 0.503979,0.15095 0.209383,0.15095 0.309205,0.43824 z" /> </g>
<g style="font-style:normal;font-variant:normal;font-weight:normal;font-stretch:normal;font-size:4.98623px;line-height:125%;font-family:'Open Sans';-inkscape-font-specification:'Open Sans';letter-spacing:0px;word-spacing:0px;fill:#000000;fill-opacity:1;stroke:none;stroke-width:0.264583px;stroke-linecap:butt;stroke-linejoin:miter;stroke-opacity:1" id="text18949" transform="rotate(90)" aria-label="20 mm">
<path id="path1004" style="font-style:normal;font-variant:normal;font-weight:normal;font-stretch:normal;font-family:'Open Sans';-inkscape-font-specification:'Open Sans';stroke-width:0.264583px" d="m 6.4975269,-93.943094 h 1.7164512 v 0.413896 H 5.905899 v -0.413896 q 0.2799885,-0.289727 0.7620556,-0.776663 0.4845019,-0.489372 0.6086707,-0.630583 0.2361642,-0.265381 0.3286821,-0.447982 0.094953,-0.185036 0.094953,-0.362768 0,-0.289727 -0.2045134,-0.472328 -0.2020786,-0.182601 -0.5283261,-0.182601 -0.2312948,0 -0.4893712,0.08034 -0.2556417,0.08034 -0.5478036,0.243469 v -0.496676 q 0.2970313,-0.119299 0.5551077,-0.180166 0.2580763,-0.06087 0.4723284,-0.06087 0.5648463,0 0.9008325,0.282423 0.3359862,0.282423 0.3359862,0.754752 0,0.22399 -0.085214,0.426069 -0.082779,0.199644 -0.3043353,0.472328 -0.060867,0.07061 -0.3871145,0.409027 -0.3262475,0.335986 -0.92031,0.942222 z" />
<path id="path1006" style="font-style:normal;font-variant:normal;font-weight:normal;font-stretch:normal;font-family:'Open Sans';-inkscape-font-specification:'Open Sans';stroke-width:0.264583px" d="m 10.300501,-96.840366 q -0.3798104,0 -0.5721503,0.374941 -0.1899052,0.372507 -0.1899052,1.122389 0,0.747447 0.1899052,1.122388 0.1923399,0.372507 0.5721503,0.372507 0.382245,0 0.572151,-0.372507 0.192339,-0.374941 0.192339,-1.122388 0,-0.749882 -0.192339,-1.122389 -0.189906,-0.374941 -0.572151,-0.374941 z m 0,-0.389549 q 0.611105,0 0.932484,0.484502 0.323812,0.482067 0.323812,1.402377 0,0.917875 -0.323812,1.402377 -0.321379,0.482067 -0.932484,0.482067 -0.6111052,0 -0.934918,-0.482067 -0.3213781,-0.484502 -0.3213781,-1.402377 0,-0.92031 0.3213781,-1.402377 0.3238128,-0.484502 0.934918,-0.484502 z" />
<path id="path1008" style="font-style:normal;font-variant:normal;font-weight:normal;font-stretch:normal;font-family:'Open Sans';-inkscape-font-specification:'Open Sans';stroke-width:0.264583px" d="m 15.476636,-95.732585 q 0.167993,-0.301901 0.401723,-0.445547 0.23373,-0.143647 0.550238,-0.143647 0.42607,0 0.657365,0.299466 0.231294,0.297032 0.231294,0.84727 v 1.645845 H 16.86684 v -1.631237 q 0,-0.391984 -0.138777,-0.581889 -0.138777,-0.189905 -0.423635,-0.189905 -0.348159,0 -0.550238,0.231294 -0.202078,0.231295 -0.202078,0.630583 v 1.541154 h -0.450417 v -1.631237 q 0,-0.394419 -0.138777,-0.581889 -0.138777,-0.189905 -0.428504,-0.189905 -0.34329,0 -0.545369,0.233729 -0.202078,0.231295 -0.202078,0.628148 v 1.541154 H 13.33655 v -2.726844 h 0.450417 v 0.423635 q 0.153385,-0.250773 0.367637,-0.370072 0.214252,-0.1193 0.508848,-0.1193 0.297032,0 0.50398,0.150951 0.209382,0.15095 0.309204,0.438243 z" />
<path id="path1010" style="font-style:normal;font-variant:normal;font-weight:normal;font-stretch:normal;font-family:'Open Sans';-inkscape-font-specification:'Open Sans';stroke-width:0.264583px" d="m 20.336263,-95.732585 q 0.167993,-0.301901 0.401722,-0.445547 0.23373,-0.143647 0.550239,-0.143647 0.426069,0 0.657364,0.299466 0.231295,0.297032 0.231295,0.84727 v 1.645845 h -0.450417 v -1.631237 q 0,-0.391984 -0.138777,-0.581889 -0.138776,-0.189905 -0.423634,-0.189905 -0.34816,0 -0.550239,0.231294 -0.202078,0.231295 -0.202078,0.630583 v 1.541154 h -0.450416 v -1.631237 q 0,-0.394419 -0.138777,-0.581889 -0.138777,-0.189905 -0.428505,-0.189905 -0.34329,0 -0.545368,0.233729 -0.202079,0.231295 -0.202079,0.628148 v 1.541154 h -0.450416 v -2.726844 h 0.450416 v 0.423635 q 0.153385,-0.250773 0.367637,-0.370072 0.214252,-0.1193 0.508849,-0.1193 0.297031,0 0.503979,0.150951 0.209383,0.15095 0.309205,0.438243 z" /> </g>
<g style="font-style:normal;font-variant:normal;font-weight:normal;font-stretch:normal;font-size:4.98623px;line-height:125%;font-family:'Open Sans';-inkscape-font-specification:'Open Sans';letter-spacing:0px;word-spacing:0px;fill:#000000;fill-opacity:1;stroke:none;stroke-width:0.264583px;stroke-linecap:butt;stroke-linejoin:miter;stroke-opacity:1" id="text22045" transform="rotate(90)" aria-label="14 mm">
<path id="path1013" style="font-style:normal;font-variant:normal;font-weight:normal;font-stretch:normal;font-family:'Open Sans';-inkscape-font-specification:'Open Sans';stroke-width:0.264583px" d="m 6.159106,-79.590394 h 0.8034452 v -2.773104 l -0.874051,0.175297 v -0.447981 l 0.8691817,-0.175297 h 0.4918059 v 3.221085 H 8.252933 v 0.413896 H 6.159106 Z" />
<path id="path1015" style="font-style:normal;font-variant:normal;font-weight:normal;font-stretch:normal;font-family:'Open Sans';-inkscape-font-specification:'Open Sans';stroke-width:0.264583px" d="m 10.599967,-82.382975 -1.241688,1.940442 h 1.241688 z m -0.129038,-0.428504 h 0.618409 v 2.368946 h 0.518588 v 0.409026 h -0.518588 v 0.857009 h -0.489371 v -0.857009 H 8.958991 v -0.474763 z" />
<path id="path1017" style="font-style:normal;font-variant:normal;font-weight:normal;font-stretch:normal;font-family:'Open Sans';-inkscape-font-specification:'Open Sans';stroke-width:0.264583px" d="m 15.476636,-81.379886 q 0.167993,-0.301901 0.401723,-0.445547 0.23373,-0.143646 0.550238,-0.143646 0.42607,0 0.657365,0.299466 0.231294,0.297031 0.231294,0.847269 v 1.645846 H 16.86684 v -1.631238 q 0,-0.391984 -0.138777,-0.581889 -0.138777,-0.189905 -0.423635,-0.189905 -0.348159,0 -0.550238,0.231295 -0.202078,0.231295 -0.202078,0.630583 v 1.541154 h -0.450417 v -1.631238 q 0,-0.394418 -0.138777,-0.581889 -0.138777,-0.189905 -0.428504,-0.189905 -0.34329,0 -0.545369,0.233729 -0.202078,0.231295 -0.202078,0.628149 v 1.541154 H 13.33655 v -2.726845 h 0.450417 v 0.423635 q 0.153385,-0.250772 0.367637,-0.370072 0.214252,-0.119299 0.508848,-0.119299 0.297032,0 0.50398,0.15095 0.209382,0.15095 0.309204,0.438243 z" />
<path id="path1019" style="font-style:normal;font-variant:normal;font-weight:normal;font-stretch:normal;font-family:'Open Sans';-inkscape-font-specification:'Open Sans';stroke-width:0.264583px" d="m 20.336263,-81.379886 q 0.167993,-0.301901 0.401722,-0.445547 0.23373,-0.143646 0.550239,-0.143646 0.426069,0 0.657364,0.299466 0.231295,0.297031 0.231295,0.847269 v 1.645846 h -0.450417 v -1.631238 q 0,-0.391984 -0.138777,-0.581889 -0.138776,-0.189905 -0.423634,-0.189905 -0.34816,0 -0.550239,0.231295 -0.202078,0.231295 -0.202078,0.630583 v 1.541154 h -0.450416 v -1.631238 q 0,-0.394418 -0.138777,-0.581889 -0.138777,-0.189905 -0.428505,-0.189905 -0.34329,0 -0.545368,0.233729 -0.202079,0.231295 -0.202079,0.628149 v 1.541154 h -0.450416 v -2.726845 h 0.450416 v 0.423635 q 0.153385,-0.250772 0.367637,-0.370072 0.214252,-0.119299 0.508849,-0.119299 0.297031,0 0.503979,0.15095 0.209383,0.15095 0.309205,0.438243 z" /> </g>
<g style="font-style:normal;font-variant:normal;font-weight:normal;font-stretch:normal;font-size:4.98623px;line-height:125%;font-family:'Open Sans';-inkscape-font-specification:'Open Sans';letter-spacing:0px;word-spacing:0px;fill:#000000;fill-opacity:1;stroke:none;stroke-width:0.264583px;stroke-linecap:butt;stroke-linejoin:miter;stroke-opacity:1" id="text23688" transform="rotate(90)" aria-label="6°">
<path id="path1022" style="font-style:normal;font-variant:normal;font-weight:normal;font-stretch:normal;font-family:'Open Sans';-inkscape-font-specification:'Open Sans';stroke-width:0.264583px" d="m 106.02185,-285.17483 q -0.33111,0 -0.52589,0.22643 -0.19234,0.22642 -0.19234,0.62084 0,0.39198 0.19234,0.62084 0.19478,0.22643 0.52589,0.22643 0.33112,0 0.52346,-0.22643 0.19477,-0.22886 0.19477,-0.62084 0,-0.39442 -0.19477,-0.62084 -0.19234,-0.22643 -0.52346,-0.22643 z m 0.97631,-1.54115 v 0.44798 q -0.18504,-0.0877 -0.37494,-0.13391 -0.18747,-0.0463 -0.37251,-0.0463 -0.48693,0 -0.74501,0.32868 -0.25564,0.32869 -0.29216,0.99335 0.14364,-0.21181 0.36033,-0.32381 0.21669,-0.11443 0.4772,-0.11443 0.5478,0 0.86431,0.33355 0.31894,0.33112 0.31894,0.90327 0,0.55998 -0.33111,0.8984 -0.33112,0.33842 -0.88136,0.33842 -0.63058,0 -0.96413,-0.48207 -0.33355,-0.4845 -0.33355,-1.40237 0,-0.86188 0.40902,-1.37317 0.40903,-0.51371 1.09805,-0.51371 0.18503,0 0.3725,0.0365 0.18991,0.0365 0.39442,0.10956 z" />
<path id="path1024" style="font-style:normal;font-variant:normal;font-weight:normal;font-stretch:normal;font-family:'Open Sans';-inkscape-font-specification:'Open Sans';stroke-width:0.264583px" d="m 108.79739,-286.54799 q -0.19477,0 -0.32868,0.13634 -0.13391,0.13391 -0.13391,0.32868 0,0.19234 0.13391,0.32625 0.13391,0.13147 0.32868,0.13147 0.19478,0 0.32868,-0.13147 0.13391,-0.13391 0.13391,-0.32625 0,-0.19234 -0.13634,-0.32868 -0.13391,-0.13634 -0.32625,-0.13634 z m 0,-0.31407 q 0.15582,0 0.29947,0.0609 0.14364,0.0584 0.24833,0.17043 0.112,0.10956 0.168,0.24834 0.056,0.13878 0.056,0.29946 0,0.32138 -0.22643,0.54537 -0.22399,0.22156 -0.55024,0.22156 -0.32868,0 -0.5478,-0.21912 -0.21912,-0.21912 -0.21912,-0.54781 0,-0.32624 0.22399,-0.55267 0.22399,-0.22642 0.5478,-0.22642 z" /> </g>
<g style="font-style:normal;font-variant:normal;font-weight:normal;font-stretch:normal;font-size:4.98623px;line-height:125%;font-family:'Open Sans';-inkscape-font-specification:'Open Sans';letter-spacing:0px;word-spacing:0px;fill:#000000;fill-opacity:1;stroke:none;stroke-width:0.264583px;stroke-linecap:butt;stroke-linejoin:miter;stroke-opacity:1" id="text23692" transform="rotate(90)" aria-label="12°">
<path id="path1027" style="font-style:normal;font-variant:normal;font-weight:normal;font-stretch:normal;font-family:'Open Sans';-inkscape-font-specification:'Open Sans';stroke-width:0.264583px" d="m 102.14341,-256.9565 h 0.80345 v -2.7731 l -0.87405,0.1753 v -0.44799 l 0.86918,-0.17529 h 0.4918 v 3.22108 h 0.80345 v 0.4139 h -2.09383 z" />
<path id="path1029" style="font-style:normal;font-variant:normal;font-weight:normal;font-stretch:normal;font-family:'Open Sans';-inkscape-font-specification:'Open Sans';stroke-width:0.264583px" d="m 105.65666,-256.9565 h 1.71645 v 0.4139 h -2.30808 v -0.4139 q 0.27999,-0.28973 0.76206,-0.77666 0.4845,-0.48937 0.60867,-0.63059 0.23616,-0.26538 0.32868,-0.44798 0.095,-0.18503 0.095,-0.36276 0,-0.28973 -0.20451,-0.47233 -0.20208,-0.1826 -0.52833,-0.1826 -0.23129,0 -0.48937,0.0803 -0.25564,0.0804 -0.5478,0.24347 v -0.49668 q 0.29703,-0.1193 0.5551,-0.18016 0.25808,-0.0609 0.47233,-0.0609 0.56485,0 0.90084,0.28242 0.33598,0.28243 0.33598,0.75475 0,0.224 -0.0852,0.42607 -0.0828,0.19965 -0.30434,0.47233 -0.0609,0.0706 -0.38711,0.40903 -0.32625,0.33599 -0.92031,0.94222 z" />
<path id="path1031" style="font-style:normal;font-variant:normal;font-weight:normal;font-stretch:normal;font-family:'Open Sans';-inkscape-font-specification:'Open Sans';stroke-width:0.264583px" d="m 109.12121,-259.92925 q -0.19477,0 -0.32868,0.13635 -0.13391,0.1339 -0.13391,0.32868 0,0.19234 0.13391,0.32625 0.13391,0.13147 0.32868,0.13147 0.19478,0 0.32868,-0.13147 0.13391,-0.13391 0.13391,-0.32625 0,-0.19234 -0.13634,-0.32868 -0.13391,-0.13635 -0.32625,-0.13635 z m 0,-0.31407 q 0.15582,0 0.29947,0.0609 0.14364,0.0584 0.24833,0.17042 0.112,0.10957 0.168,0.24834 0.056,0.13878 0.056,0.29947 0,0.32138 -0.22643,0.54537 -0.22399,0.22155 -0.55024,0.22155 -0.32868,0 -0.5478,-0.21912 -0.21912,-0.21912 -0.21912,-0.5478 0,-0.32625 0.22399,-0.55267 0.22399,-0.22643 0.5478,-0.22643 z" /> </g>
<g style="font-style:normal;font-variant:normal;font-weight:normal;font-stretch:normal;font-size:4.98623px;line-height:125%;font-family:'Open Sans';-inkscape-font-specification:'Open Sans';letter-spacing:0px;word-spacing:0px;fill:#000000;fill-opacity:1;stroke:none;stroke-width:0.264583px;stroke-linecap:butt;stroke-linejoin:miter;stroke-opacity:1" id="text23696" transform="rotate(90)" aria-label="18°">
<path id="path1034" style="font-style:normal;font-variant:normal;font-weight:normal;font-stretch:normal;font-family:'Open Sans';-inkscape-font-specification:'Open Sans';stroke-width:0.264583px" d="m 102.14341,-237.17079 h 0.80345 v -2.77311 l -0.87405,0.1753 v -0.44798 l 0.86918,-0.1753 h 0.4918 v 3.22109 h 0.80345 v 0.41389 h -2.09383 z" />
<path id="path1036" style="font-style:normal;font-variant:normal;font-weight:normal;font-stretch:normal;font-family:'Open Sans';-inkscape-font-specification:'Open Sans';stroke-width:0.264583px" d="m 106.28481,-238.48309 q -0.3506,0 -0.55268,0.18747 -0.19964,0.18747 -0.19964,0.51616 0,0.32868 0.19964,0.51615 0.20208,0.18747 0.55268,0.18747 0.35059,0 0.55267,-0.18747 0.20208,-0.18991 0.20208,-0.51615 0,-0.32869 -0.20208,-0.51616 -0.19965,-0.18747 -0.55267,-0.18747 z m -0.49181,-0.20938 q -0.31651,-0.0779 -0.49424,-0.2946 -0.1753,-0.21668 -0.1753,-0.52832 0,-0.43581 0.30921,-0.68902 0.31164,-0.2532 0.85214,-0.2532 0.54293,0 0.85213,0.2532 0.30921,0.25321 0.30921,0.68902 0,0.31164 -0.17773,0.52832 -0.1753,0.21669 -0.48937,0.2946 0.35546,0.0828 0.55267,0.32381 0.19964,0.24104 0.19964,0.5892 0,0.52832 -0.32381,0.81075 -0.32138,0.28242 -0.92274,0.28242 -0.60137,0 -0.92518,-0.28242 -0.32138,-0.28243 -0.32138,-0.81075 0,-0.34816 0.19964,-0.5892 0.19965,-0.24103 0.55511,-0.32381 z m -0.18017,-0.77666 q 0,0.28242 0.1753,0.44067 0.17773,0.15826 0.49668,0.15826 0.3165,0 0.49424,-0.15826 0.18016,-0.15825 0.18016,-0.44067 0,-0.28243 -0.18016,-0.44068 -0.17774,-0.15826 -0.49424,-0.15826 -0.31895,0 -0.49668,0.15826 -0.1753,0.15825 -0.1753,0.44068 z" />
<path id="path1038" style="font-style:normal;font-variant:normal;font-weight:normal;font-stretch:normal;font-family:'Open Sans';-inkscape-font-specification:'Open Sans';stroke-width:0.264583px" d="m 109.12121,-240.14354 q -0.19477,0 -0.32868,0.13634 -0.13391,0.13391 -0.13391,0.32868 0,0.19234 0.13391,0.32625 0.13391,0.13147 0.32868,0.13147 0.19478,0 0.32868,-0.13147 0.13391,-0.13391 0.13391,-0.32625 0,-0.19234 -0.13634,-0.32868 -0.13391,-0.13634 -0.32625,-0.13634 z m 0,-0.31407 q 0.15582,0 0.29947,0.0609 0.14364,0.0584 0.24833,0.17043 0.112,0.10956 0.168,0.24834 0.056,0.13877 0.056,0.29946 0,0.32138 -0.22643,0.54537 -0.22399,0.22156 -0.55024,0.22156 -0.32868,0 -0.5478,-0.21912 -0.21912,-0.21912 -0.21912,-0.54781 0,-0.32624 0.22399,-0.55267 0.22399,-0.22642 0.5478,-0.22642 z" /> </g>
<g style="font-style:normal;font-variant:normal;font-weight:normal;font-stretch:normal;font-size:4.98623px;line-height:125%;font-family:'Open Sans';-inkscape-font-specification:'Open Sans';letter-spacing:0px;word-spacing:0px;fill:#000000;fill-opacity:1;stroke:none;stroke-width:0.264583px;stroke-linecap:butt;stroke-linejoin:miter;stroke-opacity:1" id="text23700" transform="rotate(90)" aria-label="34°">
<path id="path1041" style="font-style:normal;font-variant:normal;font-weight:normal;font-stretch:normal;font-family:'Open Sans';-inkscape-font-specification:'Open Sans';stroke-width:0.264583px" d="m 103.54822,-180.52198 q 0.35303,0.0755 0.55024,0.31408 0.19964,0.2386 0.19964,0.58919 0,0.53807 -0.37007,0.83266 -0.37007,0.2946 -1.05178,0.2946 -0.22886,0 -0.47233,-0.0463 -0.24103,-0.0438 -0.49911,-0.13391 v -0.47476 q 0.20452,0.1193 0.44798,0.18017 0.24347,0.0609 0.50885,0.0609 0.46259,0 0.70363,-0.1826 0.24346,-0.1826 0.24346,-0.53076 0,-0.32138 -0.22642,-0.50154 -0.22399,-0.18261 -0.62572,-0.18261 h -0.42363 v -0.40415 h 0.44311 q 0.36277,0 0.55511,-0.14365 0.19234,-0.14608 0.19234,-0.41876 0,-0.27999 -0.19964,-0.42851 -0.19721,-0.15095 -0.56729,-0.15095 -0.20207,0 -0.43337,0.0438 -0.23129,0.0438 -0.50885,0.13634 v -0.43825 q 0.27999,-0.0779 0.52346,-0.11686 0.2459,-0.0389 0.46259,-0.0389 0.55998,0 0.88622,0.25564 0.32625,0.2532 0.32625,0.68658 0,0.3019 -0.17286,0.51128 -0.17286,0.20695 -0.49181,0.28729 z" />
<path id="path1043" style="font-style:normal;font-variant:normal;font-weight:normal;font-stretch:normal;font-family:'Open Sans';-inkscape-font-specification:'Open Sans';stroke-width:0.264583px" d="m 106.58427,-181.76853 -1.24169,1.94044 h 1.24169 z m -0.12904,-0.42851 h 0.61841 v 2.36895 h 0.51859 v 0.40902 h -0.51859 v 0.85701 h -0.48937 v -0.85701 h -1.64097 v -0.47476 z" />
<path id="path1045" style="font-style:normal;font-variant:normal;font-weight:normal;font-stretch:normal;font-family:'Open Sans';-inkscape-font-specification:'Open Sans';stroke-width:0.264583px" d="m 109.12121,-181.9487 q -0.19477,0 -0.32868,0.13634 -0.13391,0.13391 -0.13391,0.32868 0,0.19234 0.13391,0.32625 0.13391,0.13147 0.32868,0.13147 0.19478,0 0.32868,-0.13147 0.13391,-0.13391 0.13391,-0.32625 0,-0.19234 -0.13634,-0.32868 -0.13391,-0.13634 -0.32625,-0.13634 z m 0,-0.31407 q 0.15582,0 0.29947,0.0609 0.14364,0.0584 0.24833,0.17043 0.112,0.10956 0.168,0.24834 0.056,0.13877 0.056,0.29946 0,0.32138 -0.22643,0.54537 -0.22399,0.22156 -0.55024,0.22156 -0.32868,0 -0.5478,-0.21912 -0.21912,-0.21912 -0.21912,-0.54781 0,-0.32624 0.22399,-0.55267 0.22399,-0.22642 0.5478,-0.22642 z" /> </g>
<g style="font-style:normal;font-variant:normal;font-weight:normal;font-stretch:normal;font-size:4.98623px;line-height:125%;font-family:'Open Sans';-inkscape-font-specification:'Open Sans';letter-spacing:0px;word-spacing:0px;fill:#000000;fill-opacity:1;stroke:none;stroke-width:0.264583px;stroke-linecap:butt;stroke-linejoin:miter;stroke-opacity:1" id="text23704" transform="rotate(90)" aria-label="45°">
<path id="path1048" style="font-style:normal;font-variant:normal;font-weight:normal;font-stretch:normal;font-family:'Open Sans';-inkscape-font-specification:'Open Sans';stroke-width:0.264583px" d="m 103.40945,-151.02606 -1.24169,1.94044 h 1.24169 z m -0.12904,-0.4285 h 0.61841 v 2.36894 h 0.51858 v 0.40903 h -0.51858 v 0.85701 h -0.48937 v -0.85701 h -1.64098 v -0.47476 z" />
<path id="path1050" style="font-style:normal;font-variant:normal;font-weight:normal;font-stretch:normal;font-family:'Open Sans';-inkscape-font-specification:'Open Sans';stroke-width:0.264583px" d="m 105.23789,-151.45456 h 1.93071 v 0.41389 h -1.48029 v 0.8911 q 0.10712,-0.0365 0.21425,-0.0536 0.10713,-0.0195 0.21425,-0.0195 0.60867,0 0.96414,0.33355 0.35546,0.33355 0.35546,0.90327 0,0.58676 -0.3652,0.913 -0.3652,0.32382 -1.02987,0.32382 -0.22886,0 -0.46746,-0.039 -0.23617,-0.0389 -0.48937,-0.11686 v -0.49424 q 0.21912,0.11929 0.45285,0.17773 0.23373,0.0584 0.49424,0.0584 0.4212,0 0.6671,-0.22156 0.2459,-0.22155 0.2459,-0.60136 0,-0.37981 -0.2459,-0.60137 -0.2459,-0.22156 -0.6671,-0.22156 -0.19721,0 -0.39442,0.0438 -0.19477,0.0438 -0.39929,0.13634 z" />
<path id="path1052" style="font-style:normal;font-variant:normal;font-weight:normal;font-stretch:normal;font-family:'Open Sans';-inkscape-font-specification:'Open Sans';stroke-width:0.264583px" d="m 109.12121,-151.20622 q -0.19477,0 -0.32868,0.13634 -0.13391,0.13391 -0.13391,0.32868 0,0.19234 0.13391,0.32625 0.13391,0.13147 0.32868,0.13147 0.19478,0 0.32868,-0.13147 0.13391,-0.13391 0.13391,-0.32625 0,-0.19234 -0.13634,-0.32868 -0.13391,-0.13634 -0.32625,-0.13634 z m 0,-0.31408 q 0.15582,0 0.29947,0.0609 0.14364,0.0584 0.24833,0.17043 0.112,0.10956 0.168,0.24833 0.056,0.13878 0.056,0.29947 0,0.32138 -0.22643,0.54537 -0.22399,0.22156 -0.55024,0.22156 -0.32868,0 -0.5478,-0.21913 -0.21912,-0.21912 -0.21912,-0.5478 0,-0.32625 0.22399,-0.55267 0.22399,-0.22643 0.5478,-0.22643 z" /> </g>
<g style="font-style:normal;font-variant:normal;font-weight:normal;font-stretch:normal;font-size:4.98623px;line-height:125%;font-family:'Open Sans';-inkscape-font-specification:'Open Sans';letter-spacing:0px;word-spacing:0px;fill:#000000;fill-opacity:1;stroke:none;stroke-width:0.264583px;stroke-linecap:butt;stroke-linejoin:miter;stroke-opacity:1" id="text23708" transform="rotate(90)" aria-label="64°">
<path id="path1055" style="font-style:normal;font-variant:normal;font-weight:normal;font-stretch:normal;font-family:'Open Sans';-inkscape-font-specification:'Open Sans';stroke-width:0.264583px" d="m 103.17085,-120.69541 q -0.33112,0 -0.52589,0.22642 -0.19234,0.22643 -0.19234,0.62085 0,0.39198 0.19234,0.62084 0.19477,0.22643 0.52589,0.22643 0.33111,0 0.52345,-0.22643 0.19478,-0.22886 0.19478,-0.62084 0,-0.39442 -0.19478,-0.62085 -0.19234,-0.22642 -0.52345,-0.22642 z m 0.9763,-1.54116 v 0.44798 q -0.18503,-0.0876 -0.37494,-0.1339 -0.18747,-0.0463 -0.3725,-0.0463 -0.48694,0 -0.74502,0.32868 -0.25564,0.32868 -0.29216,0.99335 0.14365,-0.21182 0.36034,-0.32381 0.21668,-0.11443 0.47719,-0.11443 0.54781,0 0.86432,0.33355 0.31894,0.33112 0.31894,0.90327 0,0.55997 -0.33112,0.89839 -0.33111,0.33843 -0.88135,0.33843 -0.63059,0 -0.96414,-0.48207 -0.33355,-0.4845 -0.33355,-1.40238 0,-0.86188 0.40903,-1.37316 0.40902,-0.51372 1.09804,-0.51372 0.18504,0 0.37251,0.0365 0.1899,0.0365 0.39441,0.10956 z" />
<path id="path1058" style="font-style:normal;font-variant:normal;font-weight:normal;font-stretch:normal;font-family:'Open Sans';-inkscape-font-specification:'Open Sans';stroke-width:0.264583px" d="m 106.58427,-121.88841 -1.24169,1.94044 h 1.24169 z m -0.12904,-0.4285 h 0.61841 v 2.36894 h 0.51859 v 0.40903 h -0.51859 v 0.85701 h -0.48937 v -0.85701 h -1.64097 v -0.47476 z" />
<path id="path1060" style="font-style:normal;font-variant:normal;font-weight:normal;font-stretch:normal;font-family:'Open Sans';-inkscape-font-specification:'Open Sans';stroke-width:0.264583px" d="m 109.12121,-122.06857 q -0.19477,0 -0.32868,0.13634 -0.13391,0.13391 -0.13391,0.32868 0,0.19234 0.13391,0.32625 0.13391,0.13147 0.32868,0.13147 0.19478,0 0.32868,-0.13147 0.13391,-0.13391 0.13391,-0.32625 0,-0.19234 -0.13634,-0.32868 -0.13391,-0.13634 -0.32625,-0.13634 z m 0,-0.31408 q 0.15582,0 0.29947,0.0609 0.14364,0.0584 0.24833,0.17043 0.112,0.10956 0.168,0.24833 0.056,0.13878 0.056,0.29947 0,0.32138 -0.22643,0.54537 -0.22399,0.22156 -0.55024,0.22156 -0.32868,0 -0.5478,-0.21913 -0.21912,-0.21912 -0.21912,-0.5478 0,-0.32625 0.22399,-0.55267 0.22399,-0.22643 0.5478,-0.22643 z" /> </g>
<g style="font-style:normal;font-variant:normal;font-weight:normal;font-stretch:normal;font-size:4.98623px;line-height:125%;font-family:'Open Sans';-inkscape-font-specification:'Open Sans';letter-spacing:0px;word-spacing:0px;fill:#000000;fill-opacity:1;stroke:none;stroke-width:0.264583px;stroke-linecap:butt;stroke-linejoin:miter;stroke-opacity:1" id="text23712" transform="rotate(90)" aria-label="84°">
<path id="path1063" style="font-style:normal;font-variant:normal;font-weight:normal;font-stretch:normal;font-family:'Open Sans';-inkscape-font-specification:'Open Sans';stroke-width:0.264583px" d="m 103.10998,-103.10874 q -0.35059,0 -0.55267,0.18747 -0.19965,0.18747 -0.19965,0.51615 0,0.32868 0.19965,0.51615 0.20208,0.18747 0.55267,0.18747 0.35059,0 0.55267,-0.18747 0.20208,-0.1899 0.20208,-0.51615 0,-0.32868 -0.20208,-0.51615 -0.19964,-0.18747 -0.55267,-0.18747 z m -0.49181,-0.20939 q -0.3165,-0.0779 -0.49424,-0.29459 -0.17529,-0.21669 -0.17529,-0.52833 0,-0.43581 0.3092,-0.68901 0.31164,-0.25321 0.85214,-0.25321 0.54293,0 0.85214,0.25321 0.3092,0.2532 0.3092,0.68901 0,0.31164 -0.17773,0.52833 -0.1753,0.21668 -0.48937,0.29459 0.35546,0.0828 0.55267,0.32382 0.19965,0.24103 0.19965,0.58919 0,0.52833 -0.32382,0.81075 -0.32137,0.28242 -0.92274,0.28242 -0.60137,0 -0.92518,-0.28242 -0.32138,-0.28242 -0.32138,-0.81075 0,-0.34816 0.19965,-0.58919 0.19964,-0.24104 0.5551,-0.32382 z m -0.18016,-0.77666 q 0,0.28242 0.17529,0.44068 0.17774,0.15825 0.49668,0.15825 0.31651,0 0.49424,-0.15825 0.18017,-0.15826 0.18017,-0.44068 0,-0.28242 -0.18017,-0.44068 -0.17773,-0.15825 -0.49424,-0.15825 -0.31894,0 -0.49668,0.15825 -0.17529,0.15826 -0.17529,0.44068 z" />
<path id="path1065" style="font-style:normal;font-variant:normal;font-weight:normal;font-stretch:normal;font-family:'Open Sans';-inkscape-font-specification:'Open Sans';stroke-width:0.264583px" d="m 106.58427,-104.58903 -1.24169,1.94044 h 1.24169 z m -0.12904,-0.4285 h 0.61841 v 2.36894 h 0.51859 v 0.40903 h -0.51859 v 0.85701 h -0.48937 v -0.85701 h -1.64097 v -0.47476 z" />
<path id="path1067" style="font-style:normal;font-variant:normal;font-weight:normal;font-stretch:normal;font-family:'Open Sans';-inkscape-font-specification:'Open Sans';stroke-width:0.264583px" d="m 109.12121,-104.7692 q -0.19477,0 -0.32868,0.13635 -0.13391,0.1339 -0.13391,0.32868 0,0.19234 0.13391,0.32625 0.13391,0.13147 0.32868,0.13147 0.19478,0 0.32868,-0.13147 0.13391,-0.13391 0.13391,-0.32625 0,-0.19234 -0.13634,-0.32868 -0.13391,-0.13635 -0.32625,-0.13635 z m 0,-0.31407 q 0.15582,0 0.29947,0.0609 0.14364,0.0584 0.24833,0.17042 0.112,0.10956 0.168,0.24834 0.056,0.13878 0.056,0.29947 0,0.32138 -0.22643,0.54537 -0.22399,0.22155 -0.55024,0.22155 -0.32868,0 -0.5478,-0.21912 -0.21912,-0.21912 -0.21912,-0.5478 0,-0.32625 0.22399,-0.55268 0.22399,-0.22642 0.5478,-0.22642 z" /> </g>
<g style="font-style:normal;font-variant:normal;font-weight:normal;font-stretch:normal;font-size:4.98623px;line-height:125%;font-family:'Open Sans';-inkscape-font-specification:'Open Sans';letter-spacing:0px;word-spacing:0px;fill:#000000;fill-opacity:1;stroke:none;stroke-width:0.264583px;stroke-linecap:butt;stroke-linejoin:miter;stroke-opacity:1" id="text23716" transform="rotate(90)" aria-label="94°">
<path id="path1070" style="font-style:normal;font-variant:normal;font-weight:normal;font-stretch:normal;font-family:'Open Sans';-inkscape-font-specification:'Open Sans';stroke-width:0.264583px" d="m 102.07281,-93.604673 v -0.447981 q 0.18503,0.08765 0.37494,0.133907 0.1899,0.04626 0.3725,0.04626 0.48694,0 0.74258,-0.326247 0.25808,-0.328683 0.2946,-0.995786 -0.14121,0.209383 -0.3579,0.321379 -0.21669,0.111995 -0.47963,0.111995 -0.54537,0 -0.86432,-0.328682 -0.3165,-0.331117 -0.3165,-0.903267 0,-0.559977 0.33111,-0.898398 0.33112,-0.338421 0.88136,-0.338421 0.63058,0 0.9617,0.484502 0.33355,0.482067 0.33355,1.402377 0,0.859443 -0.40903,1.373161 -0.40659,0.511283 -1.09561,0.511283 -0.18503,0 -0.37494,-0.03652 -0.1899,-0.03652 -0.39441,-0.109561 z m 0.97874,-1.541154 q 0.33111,0 0.52345,-0.226425 0.19478,-0.226426 0.19478,-0.620844 0,-0.391984 -0.19478,-0.61841 -0.19234,-0.22886 -0.52345,-0.22886 -0.33112,0 -0.52589,0.22886 -0.19234,0.226426 -0.19234,0.61841 0,0.394418 0.19234,0.620844 0.19477,0.226425 0.52589,0.226425 z" />
<path id="path1072" style="font-style:normal;font-variant:normal;font-weight:normal;font-stretch:normal;font-family:'Open Sans';-inkscape-font-specification:'Open Sans';stroke-width:0.264583px" d="m 106.58427,-96.735675 -1.24169,1.940442 h 1.24169 z m -0.12904,-0.428504 h 0.61841 v 2.368946 h 0.51859 v 0.409027 h -0.51859 v 0.857008 h -0.48937 v -0.857008 h -1.64097 v -0.474763 z" />
<path id="path1074" style="font-style:normal;font-variant:normal;font-weight:normal;font-stretch:normal;font-family:'Open Sans';-inkscape-font-specification:'Open Sans';stroke-width:0.264583px" d="m 109.12121,-96.915841 q -0.19477,0 -0.32868,0.136342 -0.13391,0.133908 -0.13391,0.328682 0,0.19234 0.13391,0.326248 0.13391,0.131473 0.32868,0.131473 0.19478,0 0.32868,-0.131473 0.13391,-0.133908 0.13391,-0.326248 0,-0.19234 -0.13634,-0.328682 -0.13391,-0.136342 -0.32625,-0.136342 z m 0,-0.314074 q 0.15582,0 0.29947,0.06087 0.14364,0.05843 0.24833,0.170428 0.112,0.10956 0.168,0.248337 0.056,0.138777 0.056,0.299466 0,0.321378 -0.22643,0.545369 -0.22399,0.221556 -0.55024,0.221556 -0.32868,0 -0.5478,-0.219121 -0.21912,-0.219122 -0.21912,-0.547804 0,-0.326247 0.22399,-0.552673 0.22399,-0.226425 0.5478,-0.226425 z" /> </g>
<g style="font-style:normal;font-variant:normal;font-weight:normal;font-stretch:normal;font-size:4.98623px;line-height:125%;font-family:'Open Sans';-inkscape-font-specification:'Open Sans';letter-spacing:0px;word-spacing:0px;fill:#000000;fill-opacity:1;stroke:none;stroke-width:0.264583px;stroke-linecap:butt;stroke-linejoin:miter;stroke-opacity:1" id="text23720" transform="rotate(90)" aria-label="140°">
<path id="path1077" style="font-style:normal;font-variant:normal;font-weight:normal;font-stretch:normal;font-family:'Open Sans';-inkscape-font-specification:'Open Sans';stroke-width:0.264583px" d="m 99.292398,-79.661004 h 0.803442 v -2.773104 l -0.874048,0.175297 v -0.447981 l 0.869178,-0.175298 h 0.49181 v 3.221086 h 0.80344 v 0.413896 h -2.093822 z" />
<path id="path1079" style="font-style:normal;font-variant:normal;font-weight:normal;font-stretch:normal;font-family:'Open Sans';-inkscape-font-specification:'Open Sans';stroke-width:0.264583px" d="m 103.73326,-82.453585 -1.24169,1.940442 h 1.24169 z m -0.12904,-0.428505 h 0.61841 v 2.368947 h 0.51859 v 0.409026 h -0.51859 v 0.857009 h -0.48937 v -0.857009 h -1.64098 v -0.474763 z" />
<path id="path1081" style="font-style:normal;font-variant:normal;font-weight:normal;font-stretch:normal;font-family:'Open Sans';-inkscape-font-specification:'Open Sans';stroke-width:0.264583px" d="m 106.60862,-82.558277 q -0.37981,0 -0.57215,0.374941 -0.18991,0.372507 -0.18991,1.122389 0,0.747448 0.18991,1.122389 0.19234,0.372506 0.57215,0.372506 0.38224,0 0.57215,-0.372506 0.19234,-0.374941 0.19234,-1.122389 0,-0.749882 -0.19234,-1.122389 -0.18991,-0.374941 -0.57215,-0.374941 z m 0,-0.389549 q 0.6111,0 0.93248,0.484502 0.32382,0.482067 0.32382,1.402377 0,0.917875 -0.32382,1.402377 -0.32138,0.482067 -0.93248,0.482067 -0.61111,0 -0.93492,-0.482067 -0.32138,-0.484502 -0.32138,-1.402377 0,-0.92031 0.32138,-1.402377 0.32381,-0.484502 0.93492,-0.484502 z" />
<path id="path1083" style="font-style:normal;font-variant:normal;font-weight:normal;font-stretch:normal;font-family:'Open Sans';-inkscape-font-specification:'Open Sans';stroke-width:0.264583px" d="m 109.44502,-82.633752 q -0.19477,0 -0.32868,0.136342 -0.1339,0.133908 -0.1339,0.328682 0,0.19234 0.1339,0.326248 0.13391,0.131473 0.32868,0.131473 0.19478,0 0.32869,-0.131473 0.1339,-0.133908 0.1339,-0.326248 0,-0.192339 -0.13634,-0.328682 -0.13391,-0.136342 -0.32625,-0.136342 z m 0,-0.314074 q 0.15582,0 0.29947,0.06087 0.14365,0.05843 0.24834,0.170428 0.11199,0.109561 0.16799,0.248338 0.056,0.138776 0.056,0.299465 0,0.321379 -0.22643,0.545369 -0.22399,0.221556 -0.55023,0.221556 -0.32869,0 -0.54781,-0.219121 -0.21912,-0.219121 -0.21912,-0.547804 0,-0.326247 0.22399,-0.552672 0.22399,-0.226426 0.5478,-0.226426 z" /> </g> </g>
</svg>
